<?xml version="1.0" standalone="no"?>
<!DOCTYPE svg PUBLIC "-//W3C//DTD SVG 20010904//EN"
 "http://www.w3.org/TR/2001/REC-SVG-20010904/DTD/svg10.dtd">
<svg version="1.0" xmlns="http://www.w3.org/2000/svg"
 width="1080.000000pt" height="1080.000000pt" viewBox="0 0 1080.000000 1080.000000"
 preserveAspectRatio="xMidYMid meet">
<metadata>
Created by potrace 1.14, written by Peter Selinger 2001-2017
</metadata>
<g transform="translate(0.000000,1080.000000) scale(0.100000,-0.100000)"
fill="#000000" stroke="none">
<path d="M9781 9795 c-20 -21 -20 -24 -5 -19 18 5 18 5 1 -6 -9 -6 -22 -8 -27
-5 -6 3 -7 -1 -4 -10 5 -11 0 -18 -15 -22 -11 -3 -18 -10 -14 -16 4 -7 0 -8
-12 -3 -16 6 -16 4 -4 -11 9 -11 10 -14 2 -9 -7 4 -13 2 -13 -3 0 -6 -7 -11
-16 -11 -8 0 -12 -4 -9 -10 3 -5 1 -10 -5 -10 -6 0 -8 -5 -4 -12 6 -10 5 -10
-8 0 -13 10 -15 9 -13 -13 2 -14 -1 -23 -6 -19 -5 3 -6 11 -2 17 4 7 0 6 -10
-2 -9 -7 -14 -17 -11 -22 3 -5 0 -9 -6 -9 -6 0 -8 -5 -4 -12 5 -8 0 -7 -11 2
-11 9 -16 10 -11 3 4 -7 2 -13 -3 -13 -6 0 -11 -5 -11 -11 0 -5 5 -7 12 -3 7
5 8 3 4 -5 -5 -7 -14 -10 -22 -7 -12 5 -18 -5 -15 -26 0 -4 -5 -5 -13 -2 -8 3
-16 -3 -19 -15 -3 -12 -13 -21 -22 -21 -9 0 -13 -4 -10 -10 3 -5 1 -10 -5 -10
-6 0 -8 -5 -4 -12 5 -8 0 -7 -11 2 -10 8 -16 10 -12 3 4 -7 2 -21 -5 -32 -9
-15 -15 -17 -25 -9 -11 8 -12 7 -7 -7 5 -12 4 -16 -3 -12 -6 4 -13 -3 -16 -14
-4 -14 -11 -20 -21 -16 -11 4 -14 0 -11 -14 4 -18 2 -19 -12 -7 -12 9 -15 9
-9 1 4 -7 2 -13 -3 -13 -6 0 -11 -5 -11 -11 0 -5 6 -7 13 -3 8 5 8 2 -2 -9
-15 -18 -26 -23 -16 -7 3 6 1 10 -4 10 -10 0 -15 -14 -12 -32 0 -4 -5 -5 -13
-2 -8 3 -16 -3 -19 -15 -3 -12 -13 -21 -22 -21 -9 0 -13 -4 -10 -10 3 -5 1
-10 -5 -10 -6 0 -8 -5 -4 -12 6 -10 4 -10 -8 0 -14 11 -16 10 -12 -10 2 -13 2
-18 -2 -11 -7 16 -44 -15 -37 -32 2 -7 -1 -16 -8 -21 -8 -4 -10 -3 -5 4 4 7 2
12 -3 12 -10 0 -15 -14 -12 -33 1 -5 -3 -6 -9 -2 -5 3 -10 1 -10 -5 0 -6 -4
-9 -9 -6 -5 3 -15 -2 -22 -11 -8 -10 -9 -14 -2 -10 6 4 14 3 17 -2 4 -5 -5 -8
-19 -6 -22 2 -23 0 -13 -13 10 -13 10 -14 1 -8 -8 4 -13 2 -13 -4 0 -6 -4 -9
-8 -6 -5 3 -14 -4 -22 -14 -8 -10 -18 -16 -24 -13 -6 4 -5 0 2 -9 10 -13 9
-18 -5 -29 -16 -12 -17 -12 -8 1 6 10 4 9 -6 -2 -9 -9 -19 -14 -23 -11 -3 4
-6 1 -6 -6 0 -7 -4 -9 -10 -6 -6 3 -7 -1 -4 -9 4 -9 -1 -18 -10 -22 -9 -3 -13
-10 -10 -15 3 -5 -3 -6 -12 -2 -12 4 -15 3 -10 -5 4 -7 2 -12 -4 -12 -6 0 -8
-5 -5 -10 4 -6 3 -9 -2 -8 -11 4 -53 -39 -45 -47 4 -3 -2 -3 -12 1 -14 5 -17
4 -12 -4 4 -7 2 -12 -4 -12 -6 0 -8 -5 -5 -10 4 -6 3 -9 -2 -8 -9 3 -68 -52
-70 -65 -1 -5 -5 -12 -9 -15 -4 -4 -4 -1 0 6 4 6 2 12 -3 12 -6 0 -11 -7 -11
-16 0 -8 -5 -12 -10 -9 -6 4 -9 2 -8 -3 2 -5 -10 -25 -27 -43 -16 -19 -29 -37
-27 -41 1 -5 -4 -8 -12 -8 -8 0 -17 -7 -20 -16 -6 -14 -4 -15 11 -4 10 7 3 -1
-15 -18 -19 -17 -35 -37 -36 -45 -1 -8 -9 -22 -19 -31 -9 -10 -17 -23 -17 -30
0 -8 -10 -21 -22 -30 -13 -9 -17 -14 -10 -11 6 3 12 2 12 -3 0 -6 -7 -13 -16
-16 -8 -3 -12 -10 -9 -16 3 -5 1 -10 -5 -10 -7 0 -9 -7 -6 -16 3 -8 2 -13 -3
-10 -5 3 -12 -6 -15 -19 -4 -17 -11 -23 -19 -18 -7 4 -6 0 2 -11 8 -9 10 -16
5 -15 -21 4 -28 -2 -14 -11 13 -8 12 -10 -2 -10 -10 0 -18 -5 -18 -11 0 -5 6
-7 13 -3 6 4 1 -5 -13 -20 -13 -15 -25 -38 -26 -51 0 -13 -7 -32 -15 -42 -12
-15 -12 -16 1 -8 13 8 13 7 1 -8 -7 -9 -10 -17 -5 -17 4 0 -1 -7 -12 -15 -13
-10 -14 -14 -5 -15 10 0 11 -3 2 -13 -6 -8 -8 -17 -4 -20 3 -4 1 -7 -6 -7 -8
0 -11 -6 -7 -16 4 -9 1 -23 -5 -30 -6 -8 -9 -21 -5 -29 3 -8 1 -15 -4 -15 -5
0 -6 -7 -3 -17 5 -11 3 -14 -6 -8 -10 6 -11 3 -1 -15 8 -15 8 -20 1 -16 -7 5
-11 -5 -11 -28 0 -19 -5 -38 -10 -41 -8 -5 -8 -11 0 -20 8 -10 7 -14 -7 -18
-17 -4 -17 -5 0 -6 15 -1 16 -4 7 -21 -6 -12 -8 -30 -5 -40 4 -12 2 -20 -6
-20 -9 0 -8 -4 1 -15 8 -10 9 -15 2 -15 -6 0 -9 -7 -5 -16 3 -9 0 -20 -8 -25
-9 -6 -10 -9 -2 -9 15 0 14 -60 -1 -60 -8 0 -8 -2 0 -8 14 -10 15 -165 0 -174
-8 -6 -8 -8 0 -8 6 0 12 -11 12 -25 0 -14 -6 -25 -12 -25 -8 0 -8 -2 0 -8 14
-10 15 -165 0 -174 -8 -6 -8 -8 0 -8 6 0 12 -11 12 -25 0 -14 -6 -25 -12 -25
-8 0 -8 -2 0 -8 14 -10 15 -165 0 -174 -8 -6 -8 -8 0 -8 6 0 12 -11 12 -25 0
-14 -6 -25 -12 -25 -8 0 -8 -2 0 -8 14 -10 15 -165 0 -174 -8 -6 -8 -8 0 -8 6
0 12 -11 12 -25 0 -14 -6 -25 -12 -25 -8 0 -8 -3 0 -8 15 -10 15 -172 0 -172
-8 0 -8 -2 0 -8 6 -4 11 -16 11 -27 0 -11 -5 -23 -11 -27 -8 -6 -8 -8 0 -8 8
0 11 -19 9 -55 -1 -30 2 -52 6 -49 5 3 6 -2 3 -10 -3 -9 -11 -13 -18 -9 -8 5
-8 3 0 -8 7 -8 11 -41 9 -76 -1 -34 2 -60 6 -57 5 3 6 -2 3 -10 -3 -9 -11 -13
-18 -9 -8 5 -8 3 0 -8 7 -8 11 -41 9 -76 -1 -34 2 -60 6 -57 5 3 6 -2 3 -10
-3 -9 -11 -13 -18 -9 -8 5 -8 3 0 -8 7 -8 11 -41 9 -76 -1 -34 2 -60 6 -57 5
3 6 -2 3 -10 -3 -9 -11 -13 -18 -9 -8 5 -8 3 0 -8 7 -8 11 -41 9 -76 -1 -34 2
-60 6 -57 5 3 6 -2 3 -10 -3 -9 -11 -13 -18 -9 -8 5 -8 3 0 -8 7 -8 11 -41 9
-76 -1 -34 2 -60 6 -57 5 3 6 -2 3 -10 -3 -9 -11 -13 -18 -9 -8 5 -8 3 0 -8 7
-8 11 -41 9 -76 -1 -34 2 -60 6 -57 5 3 6 -2 3 -10 -3 -9 -11 -13 -18 -9 -8 5
-8 3 0 -8 7 -8 11 -41 9 -76 -1 -34 2 -60 6 -57 5 3 6 -2 3 -10 -3 -9 -11 -13
-17 -9 -6 4 -7 1 -1 -8 13 -20 13 -99 0 -99 -8 0 -8 -2 0 -8 14 -10 15 -165 0
-174 -8 -6 -8 -8 0 -8 6 0 12 -11 12 -25 0 -14 -6 -25 -12 -25 -8 0 -8 -2 0
-8 14 -10 15 -165 0 -174 -8 -6 -8 -8 0 -8 6 0 12 -11 12 -25 0 -14 -6 -25
-12 -25 -8 0 -8 -2 0 -8 14 -10 15 -165 0 -174 -8 -6 -8 -8 0 -8 6 0 12 -11
12 -25 0 -14 -6 -25 -12 -25 -8 0 -8 -2 0 -8 14 -10 15 -165 0 -174 -8 -6 -8
-8 0 -8 6 0 12 -11 12 -25 0 -14 -6 -25 -12 -25 -8 0 -8 -3 0 -8 15 -10 15
-172 0 -172 -8 0 -8 -2 0 -8 6 -4 11 -16 11 -27 0 -11 -5 -23 -11 -27 -8 -6
-8 -8 0 -8 8 0 11 -19 9 -55 -1 -30 2 -52 6 -49 5 3 6 -2 3 -10 -3 -9 -11 -13
-18 -9 -8 5 -8 3 0 -8 7 -8 11 -41 9 -76 -1 -34 2 -60 6 -57 5 3 6 -2 3 -10
-3 -9 -11 -13 -18 -9 -8 5 -8 3 0 -8 7 -8 11 -41 9 -76 -1 -34 2 -60 6 -57 5
3 6 -2 3 -10 -3 -9 -11 -13 -18 -9 -8 5 -8 3 0 -8 7 -8 11 -41 9 -76 -1 -34 2
-60 6 -57 5 3 6 -2 3 -10 -3 -9 -11 -13 -18 -9 -8 5 -8 3 0 -8 7 -8 11 -41 9
-76 -1 -34 2 -60 6 -57 5 3 6 -2 3 -10 -3 -9 -11 -13 -18 -9 -8 5 -8 3 0 -8 7
-8 11 -41 9 -76 -1 -34 2 -60 6 -57 5 3 6 -2 3 -10 -3 -9 -11 -13 -18 -9 -8 5
-8 3 0 -8 7 -8 11 -41 9 -76 -1 -34 2 -60 6 -57 5 3 6 -2 3 -10 -3 -9 -11 -13
-18 -9 -8 5 -8 3 0 -8 7 -8 11 -41 9 -76 -1 -34 2 -60 6 -57 5 3 6 -2 3 -10
-3 -9 -11 -13 -17 -9 -6 4 -7 1 -1 -8 13 -20 13 -99 0 -99 -8 0 -8 -2 0 -8 14
-10 15 -165 0 -174 -8 -6 -8 -8 0 -8 6 0 12 -11 12 -25 0 -14 -6 -25 -12 -25
-8 0 -8 -2 0 -8 14 -10 15 -165 0 -174 -8 -6 -8 -8 0 -8 6 0 12 -11 12 -25 0
-14 -6 -25 -12 -25 -8 0 -8 -2 0 -8 14 -10 15 -165 0 -174 -8 -6 -8 -8 0 -8 6
0 12 -11 12 -25 0 -14 -6 -25 -12 -25 -8 0 -8 -2 0 -8 14 -10 15 -165 0 -174
-8 -6 -8 -8 0 -8 6 0 12 -11 12 -25 0 -14 -6 -25 -12 -25 -8 0 -8 -3 0 -8 15
-10 15 -172 0 -172 -8 0 -8 -2 0 -8 6 -4 11 -16 11 -27 0 -11 -5 -23 -11 -27
-8 -6 -8 -8 0 -8 8 0 11 -19 9 -55 -1 -30 2 -52 6 -49 5 3 6 -2 3 -10 -3 -9
-11 -13 -18 -9 -6 4 -5 -1 3 -10 11 -14 11 -20 0 -34 -9 -11 -10 -14 -2 -9 10
5 12 -4 9 -38 -2 -29 1 -46 8 -46 6 0 5 -4 -3 -9 -8 -5 296 -8 707 -8 693 0
721 1 711 18 -7 15 -6 17 6 13 9 -4 25 4 39 19 13 14 26 23 30 20 3 -3 4 4 1
15 -3 16 0 19 13 15 14 -5 15 -3 5 7 -10 11 -6 18 19 37 18 13 27 23 22 23 -5
0 -10 9 -11 20 -1 13 2 18 9 14 7 -5 8 -2 3 7 -13 20 -13 49 -1 49 6 0 5 5 -2
12 -16 16 -15 31 1 22 8 -5 8 -2 -2 9 -11 14 -11 17 0 17 9 0 10 3 4 8 -15 11
-19 46 -4 36 8 -5 10 -3 4 7 -13 20 -13 49 -1 49 6 0 5 4 -2 9 -8 4 -14 12
-14 16 0 4 6 12 14 16 10 7 10 9 0 9 -10 0 -10 5 -1 21 8 15 8 19 0 15 -14 -9
-14 7 0 21 8 8 8 13 0 17 -6 4 -11 12 -11 17 0 6 6 7 13 3 9 -6 9 -4 -1 8 -10
13 -10 17 0 21 10 4 10 6 -1 6 -11 1 -11 4 0 18 8 10 9 14 2 10 -8 -5 -11 0
-10 13 1 11 6 20 12 20 5 0 4 4 -3 9 -17 11 -17 21 0 32 7 5 8 9 2 9 -6 0 -11
7 -11 15 0 8 5 15 11 15 6 0 5 5 -2 12 -16 16 -15 31 1 22 8 -5 8 -2 -2 9 -11
14 -11 17 0 17 9 0 10 3 4 8 -15 11 -19 46 -4 36 8 -5 10 -3 4 7 -13 20 -13
49 -1 49 6 0 5 5 -2 12 -16 16 -15 31 1 22 8 -5 8 -2 -2 9 -11 14 -11 17 0 17
9 0 10 3 4 8 -15 11 -19 46 -4 36 8 -5 10 -3 4 7 -13 20 -13 49 -1 49 6 0 5 4
-2 9 -8 4 -14 12 -14 16 0 4 6 12 14 16 10 7 10 9 0 9 -10 0 -10 5 -1 21 8 15
8 19 0 15 -14 -9 -14 7 0 21 8 8 8 13 0 17 -6 4 -11 12 -11 17 0 6 6 7 13 3 9
-6 9 -4 -1 8 -10 13 -10 17 0 21 10 4 10 6 -1 6 -11 1 -11 4 0 18 8 10 9 14 2
10 -8 -5 -11 0 -10 13 1 11 6 20 12 20 5 0 4 4 -3 9 -17 11 -17 21 0 32 7 5 8
9 2 9 -6 0 -11 7 -11 15 0 8 5 15 11 15 6 0 5 5 -2 12 -16 16 -15 31 1 22 8
-5 8 -2 -2 9 -11 14 -11 17 0 17 9 0 10 3 4 8 -15 11 -19 46 -4 36 8 -5 10 -3
4 7 -13 20 -13 49 -1 49 6 0 5 5 -2 12 -16 16 -15 31 1 22 8 -5 8 -2 -2 9 -11
14 -11 17 0 17 9 0 10 3 4 8 -15 11 -19 46 -4 36 8 -5 10 -3 4 7 -13 20 -13
49 -1 49 6 0 5 4 -2 9 -17 11 -17 21 0 32 10 7 10 9 0 9 -10 0 -10 5 -1 21 8
15 8 19 0 15 -14 -9 -14 7 0 21 8 8 8 13 0 17 -6 4 -11 12 -11 17 0 6 6 7 13
3 9 -6 9 -4 -1 8 -10 13 -10 17 0 21 10 4 10 6 -1 6 -11 1 -11 4 0 18 8 10 9
14 2 10 -8 -5 -11 0 -10 13 1 11 6 20 12 20 5 0 4 4 -3 9 -17 11 -17 21 0 32
7 5 8 9 2 9 -6 0 -11 7 -11 15 0 8 5 15 11 15 6 0 5 5 -2 12 -16 16 -15 31 1
22 8 -5 8 -2 -2 9 -11 14 -11 17 0 17 9 0 10 3 4 8 -15 11 -19 46 -4 36 8 -5
10 -3 4 7 -13 20 -13 49 -1 49 6 0 5 5 -2 12 -16 16 -15 31 1 22 8 -5 8 -2 -2
9 -11 14 -11 17 0 17 9 0 10 3 4 8 -15 11 -19 46 -4 36 8 -5 10 -3 4 7 -13 20
-13 49 -1 49 6 0 5 4 -2 9 -17 11 -17 21 0 32 10 7 10 9 0 9 -10 0 -10 5 -1
21 8 15 8 19 0 15 -14 -9 -14 7 0 21 8 8 8 13 0 17 -6 4 -11 12 -11 17 0 6 6
7 13 3 9 -6 9 -4 -1 8 -10 13 -10 17 0 21 10 4 10 6 -1 6 -11 1 -11 4 0 18 8
10 9 14 2 10 -8 -5 -11 0 -10 13 1 11 6 20 12 20 5 0 4 4 -3 9 -8 4 -14 12
-14 16 0 4 6 12 14 16 7 5 8 9 2 9 -6 0 -11 7 -11 15 0 8 5 15 11 15 6 0 5 5
-2 12 -16 16 -15 31 1 22 8 -5 8 -2 -2 9 -11 14 -11 17 0 17 9 0 10 3 4 8 -15
11 -19 46 -4 36 8 -5 10 -3 4 7 -13 20 -13 49 -1 49 6 0 5 5 -2 12 -16 16 -15
31 1 22 8 -5 8 -2 -2 9 -11 14 -11 17 0 17 9 0 10 3 4 8 -15 11 -19 46 -4 36
8 -5 10 -3 4 7 -13 20 -13 49 -1 49 6 0 5 4 -2 9 -17 11 -17 21 0 32 10 7 10
9 0 9 -10 0 -10 5 -1 21 8 15 8 19 0 15 -14 -9 -14 7 0 21 8 8 8 13 0 17 -6 4
-11 12 -11 17 0 6 6 7 13 3 9 -6 9 -4 -1 8 -10 13 -10 17 0 21 10 4 10 6 -1 6
-11 1 -11 4 0 18 8 10 9 14 2 10 -8 -5 -11 0 -10 13 1 11 6 20 12 20 5 0 4 4
-3 9 -17 11 -17 21 0 32 7 5 8 9 2 9 -6 0 -11 7 -11 15 0 8 5 15 11 15 6 0 5
5 -2 12 -16 16 -15 31 1 22 8 -5 8 -2 -2 9 -11 14 -11 17 0 17 9 0 10 3 4 8
-15 11 -19 46 -4 36 8 -5 10 -3 4 7 -13 20 -13 49 -1 49 6 0 5 5 -2 12 -16 16
-15 31 1 22 8 -5 8 -2 -2 9 -11 14 -11 17 0 17 9 0 10 3 4 8 -15 11 -19 46 -4
36 8 -5 10 -3 4 7 -13 20 -13 49 -1 49 6 0 5 4 -2 9 -17 11 -17 21 0 32 10 7
10 9 0 9 -10 0 -10 5 -1 21 8 15 8 19 0 15 -14 -9 -14 7 0 21 8 8 8 13 0 17
-6 4 -11 12 -11 17 0 6 6 7 13 3 9 -6 9 -4 -1 8 -10 13 -10 17 0 21 10 4 10 6
-1 6 -11 1 -11 4 0 18 8 10 9 14 2 10 -8 -5 -11 0 -10 13 1 11 6 20 12 20 5 0
4 4 -3 9 -17 11 -17 21 0 32 7 5 8 9 2 9 -6 0 -11 7 -11 15 0 8 5 15 11 15 6
0 5 5 -2 12 -16 16 -15 31 1 22 8 -5 8 -2 -2 9 -11 14 -11 17 0 17 9 0 10 3 4
8 -15 11 -19 46 -4 36 8 -5 10 -3 4 7 -13 20 -13 49 -1 49 6 0 5 5 -2 12 -16
16 -15 31 1 22 8 -5 8 -2 -2 9 -11 14 -11 17 0 17 9 0 10 3 4 8 -15 11 -19 46
-4 36 8 -5 10 -3 4 7 -13 20 -13 49 -1 49 6 0 5 4 -2 9 -17 11 -17 21 0 32 10
7 10 9 0 9 -10 0 -10 5 -1 21 8 15 8 19 0 15 -14 -9 -14 7 0 21 8 8 8 13 0 17
-6 4 -11 12 -11 17 0 6 6 7 13 3 9 -6 9 -4 -1 8 -10 13 -10 17 0 21 10 4 10 6
-1 6 -11 1 -11 4 0 18 8 10 9 14 2 10 -8 -5 -11 0 -10 13 1 11 6 20 12 20 5 0
4 4 -3 9 -17 11 -17 21 0 32 7 5 8 9 2 9 -6 0 -11 7 -11 15 0 8 5 15 11 15 6
0 5 5 -2 12 -16 16 -15 31 1 22 8 -5 8 -2 -2 9 -11 14 -11 17 0 17 9 0 10 3 4
8 -15 11 -19 46 -4 36 8 -5 10 -3 4 7 -13 20 -13 49 -1 49 6 0 5 5 -2 12 -16
16 -15 31 1 22 8 -5 8 -2 -2 9 -11 14 -11 17 0 17 9 0 10 3 4 8 -15 11 -19 46
-4 36 8 -5 10 -3 4 7 -13 20 -13 49 -1 49 6 0 5 4 -2 9 -8 4 -14 12 -14 16 0
4 6 12 14 16 10 7 10 9 0 9 -10 0 -10 5 -1 21 8 15 8 19 0 15 -14 -9 -14 7 0
21 8 8 8 13 0 17 -6 4 -11 12 -11 17 0 6 6 7 13 3 9 -6 9 -4 -1 8 -10 13 -10
17 0 21 10 4 10 6 -1 6 -11 1 -11 4 0 18 8 10 9 14 2 10 -8 -5 -11 0 -10 13 1
11 6 20 12 20 5 0 4 4 -3 9 -8 4 -14 12 -14 16 0 4 6 12 14 16 7 5 8 9 2 9 -6
0 -11 7 -11 15 0 8 5 15 11 15 6 0 5 5 -2 12 -16 16 -15 31 1 22 8 -5 8 -2 -2
9 -11 14 -11 17 0 17 9 0 10 3 4 8 -15 11 -19 46 -4 36 8 -5 10 -3 4 7 -13 20
-13 49 -1 49 6 0 5 5 -2 12 -16 16 -15 31 1 22 8 -5 8 -2 -2 9 -11 14 -11 17
0 17 9 0 10 3 4 8 -15 11 -19 46 -4 36 8 -5 10 -3 4 7 -13 20 -13 49 -1 49 6
0 5 4 -2 9 -8 4 -14 12 -14 16 0 4 6 12 14 16 10 7 10 9 0 9 -10 0 -10 5 -1
21 8 15 8 19 0 15 -14 -9 -14 7 0 21 8 8 8 13 0 17 -6 4 -11 12 -11 17 0 6 6
7 13 3 9 -6 9 -4 -1 8 -10 13 -10 17 0 21 10 4 10 6 -1 6 -11 1 -11 4 0 18 8
10 9 14 2 10 -8 -5 -11 0 -10 13 1 11 6 20 12 20 5 0 4 4 -3 9 -8 4 -14 12
-14 16 0 4 6 12 14 16 7 5 8 9 2 9 -6 0 -11 7 -11 15 0 8 5 15 11 15 6 0 5 5
-2 12 -16 16 -15 31 1 22 8 -5 8 -2 -2 9 -11 14 -11 17 0 17 9 0 10 3 4 8 -15
11 -19 46 -4 36 8 -5 10 -3 4 7 -13 20 -13 49 -1 49 6 0 5 5 -2 12 -16 16 -15
31 1 22 8 -5 8 -2 -2 9 -11 14 -11 17 0 17 9 0 10 3 4 8 -15 11 -19 46 -4 36
8 -5 10 -3 4 7 -13 20 -13 49 -1 49 6 0 5 4 -2 9 -17 11 -17 21 0 32 10 7 10
9 0 9 -10 0 -10 5 -1 21 8 15 8 19 0 15 -6 -4 -11 -3 -11 3 0 5 5 13 11 17 8
4 8 9 0 17 -15 15 -14 30 2 21 9 -6 9 -4 -1 8 -10 13 -10 17 0 21 10 4 10 6
-1 6 -11 1 -11 4 0 18 8 10 9 14 2 10 -8 -5 -11 0 -10 13 1 11 6 20 12 20 5 0
4 4 -3 9 -17 11 -17 21 0 32 7 5 8 9 2 9 -6 0 -11 7 -11 15 0 8 5 15 11 15 6
0 5 5 -2 12 -16 16 -15 31 1 22 8 -5 8 -2 -2 9 -11 14 -11 17 0 17 9 0 10 3 4
8 -15 11 -19 46 -4 36 8 -5 10 -3 4 7 -13 20 -13 49 -1 49 6 0 5 5 -2 12 -16
16 -15 31 1 22 8 -5 8 -2 -2 9 -11 14 -11 17 0 17 9 0 10 3 4 8 -15 11 -19 46
-4 36 8 -5 10 -3 4 7 -13 20 -13 49 -1 49 6 0 5 4 -2 9 -8 4 -14 12 -14 16 0
4 6 12 14 16 10 7 10 9 0 9 -10 0 -10 5 -1 21 8 15 8 19 0 15 -14 -9 -14 7 0
21 8 8 8 13 0 17 -6 4 -11 12 -11 17 0 6 6 7 13 3 9 -6 9 -4 -1 8 -10 13 -10
17 0 21 10 4 10 6 -1 6 -11 1 -11 4 0 18 8 10 9 14 2 10 -8 -5 -11 0 -10 13 1
11 6 20 12 20 5 0 4 4 -3 9 -8 4 -14 12 -14 16 0 4 6 12 14 16 7 5 8 9 2 9 -6
0 -11 7 -11 15 0 8 5 15 11 15 6 0 5 5 -2 12 -16 16 -15 31 1 22 8 -5 8 -2 -2
9 -11 14 -11 17 0 17 9 0 10 3 4 8 -15 11 -19 46 -4 36 8 -5 10 -3 4 7 -13 20
-13 49 -1 49 6 0 5 5 -2 12 -16 16 -15 31 1 22 8 -5 8 -2 -2 9 -11 14 -11 17
0 17 9 0 10 3 4 8 -15 11 -19 46 -4 36 8 -5 10 -3 4 7 -13 20 -13 49 -1 49 6
0 5 4 -2 9 -17 11 -17 21 0 32 10 7 10 9 0 9 -10 0 -10 5 -1 21 8 15 8 19 0
15 -14 -9 -14 7 0 21 8 8 8 13 0 17 -6 4 -11 12 -11 17 0 6 6 7 13 3 9 -6 9
-4 -1 8 -10 13 -10 17 0 21 10 4 10 6 -1 6 -11 1 -11 4 0 18 8 10 9 14 2 10
-8 -5 -11 0 -10 13 1 11 6 20 12 20 5 0 4 4 -3 9 -17 11 -17 21 0 32 7 5 8 9
2 9 -6 0 -11 7 -11 15 0 8 5 15 11 15 6 0 5 5 -2 12 -16 16 -15 31 1 22 8 -5
8 -2 -2 9 -11 14 -11 17 0 17 9 0 10 3 4 8 -15 11 -19 46 -4 36 8 -5 10 -3 4
7 -13 20 -13 49 -1 49 6 0 5 5 -2 12 -16 16 -15 31 1 22 8 -5 8 -2 -2 9 -11
14 -11 17 0 17 9 0 10 3 4 8 -15 11 -19 46 -4 36 8 -5 10 -3 4 7 -13 20 -13
49 -1 49 6 0 5 4 -2 9 -8 4 -14 12 -14 16 0 4 6 12 14 16 10 7 10 9 0 9 -10 0
-10 5 -1 21 8 15 8 19 0 15 -6 -4 -11 -3 -11 3 0 5 5 13 11 17 8 4 8 9 0 17
-15 15 -14 30 2 21 9 -6 9 -4 -1 8 -10 13 -10 17 0 21 10 4 10 6 -1 6 -11 1
-11 4 0 18 8 10 9 14 2 10 -8 -5 -11 0 -10 13 1 11 6 20 12 20 5 0 4 4 -3 9
-8 4 -14 12 -14 16 0 4 6 12 14 16 7 5 8 9 2 9 -6 0 -11 7 -11 15 0 8 5 15 11
15 6 0 5 5 -2 12 -16 16 -15 31 1 22 8 -5 8 -2 -2 9 -11 14 -11 17 0 17 9 0
10 3 4 8 -15 11 -19 46 -4 36 8 -5 10 -3 4 7 -13 20 -13 49 -1 49 6 0 5 5 -2
12 -16 16 -15 31 1 22 9 -6 9 -4 -1 8 -10 13 -10 17 0 21 10 4 10 6 -1 6 -11
1 -11 4 0 18 8 9 9 14 2 10 -13 -8 -13 40 1 62 6 9 5 12 -2 7 -7 -4 -10 1 -9
14 1 11 6 20 12 20 5 0 3 5 -5 10 -13 9 -13 10 0 10 13 0 13 2 1 9 -12 8 -12
12 -2 24 9 12 9 17 0 23 -7 4 -9 3 -6 -3 4 -6 0 -13 -8 -17 -8 -3 -17 0 -21 6
-5 7 -2 8 6 3 9 -5 11 -4 6 3 -9 15 -7 16 -35 -13z m-1364 -1580 c0 -8 -4 -12
-9 -9 -5 3 -6 10 -3 15 9 13 12 11 12 -6z"/>
<path d="M3463 9063 c3 -5 -18 -9 -54 -9 -38 1 -65 -4 -71 -12 -9 -10 -14 -9
-28 3 -13 11 -20 13 -25 5 -5 -8 -11 -8 -21 1 -12 10 -13 8 -8 -7 4 -10 4 -16
-1 -12 -4 4 -15 2 -23 -5 -13 -9 -14 -9 -8 1 9 14 -12 16 -33 3 -9 -6 -22 -6
-33 0 -13 7 -18 6 -16 -2 3 -12 -23 -19 -79 -22 -12 0 -19 -5 -16 -11 4 -5 -1
-7 -10 -3 -10 4 -17 1 -17 -6 0 -8 -4 -7 -10 3 -8 12 -10 12 -16 -3 -3 -9 -10
-17 -16 -17 -5 0 -7 4 -3 10 3 5 -7 3 -21 -5 -15 -8 -32 -11 -37 -8 -6 3 -7 1
-3 -5 5 -8 -1 -13 -16 -14 -13 0 -29 -2 -36 -2 -7 -1 -17 -8 -22 -16 -5 -8
-10 -11 -10 -6 0 5 -6 3 -13 -3 -8 -6 -17 -8 -20 -4 -4 3 -7 1 -7 -6 0 -7 -4
-9 -10 -6 -5 3 -10 2 -10 -3 0 -6 -7 -13 -16 -16 -10 -4 -13 -2 -8 7 4 6 -2 3
-14 -7 -12 -11 -22 -15 -22 -10 0 5 -5 1 -11 -10 -9 -15 -13 -16 -20 -5 -7 11
-9 10 -9 -4 0 -9 -3 -16 -7 -15 -11 3 -56 -23 -71 -41 -11 -12 -12 -13 -6 -1
7 12 5 13 -8 3 -8 -7 -18 -10 -21 -6 -6 6 -11 -11 -8 -29 0 -4 -6 -5 -14 -2
-8 4 -15 1 -15 -7 0 -7 -3 -10 -6 -6 -6 6 -17 -1 -55 -35 -10 -10 -19 -15 -19
-11 0 4 -7 -2 -15 -13 -8 -10 -15 -15 -15 -10 0 5 -13 -6 -30 -24 -16 -18 -30
-31 -30 -27 0 3 -11 -4 -25 -17 -14 -13 -25 -30 -25 -37 0 -11 -2 -11 -10 1
-9 14 -11 13 -14 -10 0 -5 -11 -17 -24 -25 -12 -9 -20 -21 -17 -26 3 -5 -1 -6
-10 -3 -10 4 -15 2 -13 -7 2 -8 -2 -13 -9 -12 -6 2 -15 -6 -18 -17 -4 -11 -15
-25 -26 -31 -11 -5 -17 -14 -14 -19 3 -6 -5 -15 -19 -21 -14 -7 -23 -16 -20
-20 3 -5 -5 -20 -18 -33 -50 -54 -71 -89 -60 -101 4 -5 1 -5 -5 -1 -8 4 -13 1
-13 -7 0 -8 -7 -18 -16 -21 -8 -3 -13 -10 -9 -15 3 -6 -2 -14 -11 -19 -9 -5
-16 -13 -16 -18 -1 -20 -11 -34 -20 -28 -6 4 -5 -2 1 -14 8 -15 8 -23 -1 -28
-7 -5 -8 -3 -3 6 5 8 3 11 -6 8 -8 -3 -14 -9 -14 -14 0 -5 -4 -15 -9 -23 -6
-10 -5 -12 2 -7 7 4 12 3 12 -2 0 -5 -10 -12 -22 -15 -18 -5 -19 -8 -8 -21 10
-13 10 -16 -4 -16 -10 0 -14 -4 -11 -10 3 -5 0 -10 -7 -10 -9 0 -9 -3 2 -10 8
-5 10 -10 4 -10 -6 0 -19 -21 -29 -47 -10 -27 -23 -54 -29 -62 -8 -11 -8 -13
2 -7 6 4 12 2 12 -3 0 -6 -4 -11 -8 -11 -5 0 -14 -12 -21 -27 -11 -24 -11 -25
5 -12 16 13 16 12 4 -8 -8 -12 -19 -19 -25 -15 -5 3 -3 -3 5 -13 12 -15 12
-17 1 -10 -11 6 -13 4 -8 -8 3 -9 1 -18 -6 -21 -8 -3 -8 -5 2 -5 10 -1 10 -6
-3 -26 -9 -14 -14 -30 -11 -35 3 -6 0 -10 -7 -10 -9 0 -9 -3 2 -10 12 -8 12
-10 1 -10 -8 0 -12 -3 -8 -6 3 -4 -1 -21 -10 -38 -15 -30 -15 -30 2 -16 17 14
18 14 6 -8 -7 -13 -10 -26 -7 -30 3 -3 -2 -14 -11 -25 -10 -11 -12 -17 -5 -13
7 4 12 1 12 -9 0 -9 -4 -14 -9 -10 -5 3 -13 0 -17 -6 -4 -7 -3 -9 3 -6 6 4 13
-2 16 -13 3 -11 1 -20 -4 -20 -4 0 -5 -7 -2 -17 5 -12 3 -14 -7 -8 -10 6 -11
4 -4 -6 12 -19 11 -62 -1 -71 -6 -5 -5 -8 4 -8 11 0 11 -3 1 -15 -10 -12 -10
-15 0 -15 10 0 10 -3 0 -15 -7 -8 -8 -15 -3 -15 13 0 11 -43 -2 -52 -6 -5 -4
-8 5 -8 13 0 13 -1 0 -10 -12 -8 -12 -10 -1 -10 10 0 11 -3 2 -14 -8 -9 -8
-16 -2 -20 7 -5 7 -15 1 -31 -5 -14 -6 -25 -1 -25 12 0 9 -33 -4 -42 -6 -5 -5
-8 3 -8 10 0 10 -5 2 -20 -8 -15 -8 -20 2 -20 10 0 10 -2 -1 -9 -9 -6 -10 -11
-2 -15 6 -4 9 -12 5 -17 -10 -16 -12 -59 -3 -65 5 -2 5 -15 1 -27 -9 -26 -8
-69 2 -86 4 -6 1 -11 -6 -11 -9 0 -9 -3 2 -10 13 -9 13 -10 0 -10 -12 0 -12
-2 -2 -9 8 -4 14 -12 14 -16 0 -4 -6 -12 -14 -16 -11 -7 -11 -9 1 -9 10 0 11
-3 2 -14 -8 -10 -9 -16 -1 -21 6 -3 8 -10 5 -15 -10 -15 -13 -70 -4 -76 4 -2
5 -15 1 -27 -9 -26 -8 -69 2 -86 4 -6 1 -11 -6 -11 -9 0 -9 -3 2 -10 13 -9 13
-10 0 -10 -12 0 -12 -2 -2 -9 8 -4 14 -12 14 -16 0 -4 -6 -12 -14 -16 -11 -7
-11 -9 1 -9 10 0 11 -3 2 -14 -8 -9 -8 -16 -2 -20 5 -4 6 -19 3 -34 -9 -33 -8
-75 2 -91 4 -6 1 -11 -6 -11 -9 0 -9 -3 2 -10 13 -9 13 -10 0 -10 -10 0 -11
-3 -4 -8 6 -4 9 -16 7 -27 -8 -41 -8 -70 1 -82 5 -9 4 -13 -5 -13 -10 0 -10
-3 -1 -12 8 -8 8 -17 1 -31 -8 -15 -8 -18 1 -12 9 6 9 2 1 -14 -7 -11 -8 -21
-2 -21 12 0 9 -33 -4 -42 -6 -5 -5 -8 3 -8 10 0 10 -5 2 -20 -8 -15 -8 -20 2
-20 10 0 10 -2 -1 -9 -9 -6 -10 -11 -2 -15 6 -4 9 -12 5 -17 -10 -16 -12 -59
-3 -65 5 -2 5 -15 1 -27 -9 -26 -8 -69 2 -86 4 -6 1 -11 -6 -11 -9 0 -9 -3 2
-10 13 -9 13 -10 0 -10 -12 0 -12 -2 -2 -9 17 -11 17 -21 0 -32 -11 -7 -11 -9
1 -9 10 0 11 -3 2 -14 -8 -9 -8 -16 -2 -20 7 -5 7 -15 1 -31 -5 -14 -6 -25 -1
-25 12 0 9 -33 -4 -42 -6 -5 -5 -8 3 -8 10 0 10 -5 2 -20 -8 -15 -8 -20 2 -20
10 0 10 -2 -1 -9 -9 -6 -10 -11 -2 -15 6 -4 7 -16 3 -29 -9 -26 -8 -69 2 -86
4 -6 1 -11 -6 -11 -9 0 -9 -3 2 -10 13 -9 13 -10 0 -10 -10 0 -11 -3 -4 -8 6
-4 9 -16 7 -27 -8 -41 -8 -70 1 -82 5 -9 4 -13 -4 -13 -9 0 -10 -3 -1 -13 6
-8 8 -17 5 -20 -10 -9 -11 -87 -2 -93 4 -3 4 -15 0 -27 -9 -26 -8 -69 2 -86 4
-6 1 -11 -6 -11 -9 0 -9 -3 2 -10 13 -9 13 -10 0 -10 -12 0 -12 -2 -2 -9 17
-11 17 -21 0 -32 -11 -7 -11 -9 1 -9 10 0 11 -3 2 -14 -8 -10 -9 -16 -1 -21 6
-3 8 -10 5 -15 -10 -15 -13 -70 -4 -76 4 -2 5 -15 1 -27 -9 -26 -8 -69 2 -86
4 -6 1 -11 -6 -11 -9 0 -9 -3 2 -10 13 -9 13 -10 0 -10 -12 0 -12 -2 -2 -9 17
-11 17 -21 0 -32 -11 -7 -11 -9 1 -9 10 0 11 -3 2 -14 -8 -9 -8 -16 -2 -20 7
-5 7 -15 1 -31 -5 -14 -6 -25 -1 -25 12 0 9 -33 -4 -42 -6 -5 -5 -8 3 -8 10 0
10 -5 2 -20 -8 -15 -8 -20 2 -20 10 0 10 -2 -1 -9 -9 -6 -10 -11 -2 -15 6 -4
9 -12 5 -17 -10 -16 -12 -59 -3 -65 5 -2 5 -15 1 -27 -9 -26 -8 -69 2 -86 4
-6 1 -11 -6 -11 -9 0 -9 -3 2 -10 13 -9 13 -10 0 -10 -12 0 -12 -2 -2 -9 8 -4
14 -12 14 -16 0 -4 -6 -12 -14 -16 -11 -7 -11 -9 1 -9 10 0 11 -3 2 -14 -8 -9
-8 -16 -2 -20 7 -5 7 -15 1 -31 -5 -14 -6 -25 -1 -25 12 0 9 -33 -4 -42 -6 -5
-5 -8 3 -8 10 0 10 -5 2 -20 -8 -15 -8 -20 2 -20 10 0 10 -2 -1 -9 -9 -6 -10
-11 -2 -15 8 -5 8 -13 1 -27 -6 -11 -7 -19 -1 -19 12 0 9 -33 -4 -42 -6 -5 -5
-8 3 -8 10 0 10 -5 2 -20 -8 -15 -8 -20 2 -20 10 0 10 -2 -1 -9 -9 -6 -10 -11
-2 -15 6 -4 9 -12 5 -17 -10 -16 -12 -59 -3 -65 5 -2 5 -15 1 -27 -9 -26 -8
-69 2 -86 4 -6 1 -11 -6 -11 -9 0 -9 -3 2 -10 13 -9 13 -10 0 -10 -12 0 -12
-2 -2 -9 17 -11 17 -21 0 -32 -11 -7 -11 -9 1 -9 10 0 11 -3 2 -14 -8 -9 -8
-16 -2 -20 7 -5 7 -15 1 -31 -5 -14 -6 -25 -1 -25 12 0 9 -33 -4 -42 -6 -5 -5
-8 3 -8 10 0 10 -5 2 -20 -8 -15 -8 -20 2 -20 10 0 10 -2 -1 -9 -9 -6 -10 -11
-2 -15 6 -4 7 -16 3 -29 -9 -26 -8 -69 2 -86 4 -6 1 -11 -6 -11 -9 0 -9 -3 2
-10 13 -9 13 -10 0 -10 -10 0 -11 -3 -4 -8 6 -4 9 -16 7 -27 -8 -41 -8 -70 1
-83 5 -8 4 -12 -5 -12 -10 0 -10 -3 -1 -12 8 -8 8 -17 1 -31 -8 -15 -8 -18 1
-12 9 6 9 2 1 -14 -7 -11 -8 -21 -2 -21 12 0 9 -33 -4 -42 -6 -5 -5 -8 3 -8
10 0 10 -5 2 -20 -8 -15 -8 -20 2 -20 10 0 10 -2 -1 -9 -9 -6 -10 -11 -2 -15
6 -4 9 -12 5 -17 -10 -16 -12 -59 -3 -65 5 -2 5 -15 1 -27 -9 -26 -8 -69 2
-86 4 -6 1 -11 -6 -11 -9 0 -9 -3 2 -10 13 -9 13 -10 0 -10 -12 0 -12 -2 -2
-9 17 -11 17 -21 0 -32 -11 -7 -11 -9 1 -9 10 0 11 -3 2 -14 -8 -9 -8 -16 -2
-20 7 -5 7 -15 1 -31 -5 -14 -6 -25 -1 -25 12 0 9 -33 -4 -42 -7 -5 -6 -8 0
-8 6 0 10 -12 9 -27 -1 -16 -3 -28 -4 -28 -1 0 -3 -12 -4 -26 -2 -30 21 -35
30 -7 3 10 9 16 14 13 5 -3 12 4 15 16 4 11 9 18 12 15 7 -6 83 72 83 85 0 6
3 8 8 6 4 -2 18 8 32 21 14 14 19 21 11 17 -10 -6 -12 -4 -7 4 5 7 14 10 22 7
9 -3 11 0 7 12 -3 9 -3 14 1 10 11 -9 87 72 79 85 -3 6 -1 7 6 3 11 -7 100 78
101 97 0 4 7 7 16 7 8 0 12 5 9 10 -3 6 -1 10 5 10 6 0 8 5 4 12 -5 7 -3 8 5
3 8 -4 23 4 41 24 16 17 26 31 22 31 -3 0 4 8 17 18 48 37 121 114 116 123 -4
5 0 6 8 3 17 -6 41 21 32 36 -4 6 -3 9 2 8 16 -4 53 23 53 39 0 9 3 14 6 10 5
-5 48 34 56 52 2 3 16 17 33 29 16 13 37 35 46 49 9 13 20 25 25 26 5 1 8 5 7
10 -2 4 1 7 5 7 5 0 17 7 28 16 10 8 13 12 5 8 -9 -5 -12 -3 -7 4 4 7 12 12
17 12 15 0 79 62 74 70 -2 4 7 12 20 18 14 7 25 19 25 27 0 9 4 13 10 10 5 -3
15 6 22 20 7 15 17 24 25 21 8 -3 11 -1 8 4 -3 6 -1 10 5 10 6 0 8 5 5 10 -3
6 1 10 9 10 8 0 23 14 33 30 9 17 23 30 31 30 7 0 10 4 7 10 -3 5 -1 10 5 10
6 0 8 5 4 12 -4 7 -3 8 5 4 13 -8 124 101 116 114 -3 4 3 7 13 6 9 0 16 4 15
11 -2 6 6 15 17 18 11 4 20 13 20 21 0 8 5 14 12 14 16 0 59 50 53 61 -3 4 3
6 14 4 15 -3 18 0 14 12 -4 11 -2 14 5 9 8 -4 12 -1 12 10 0 10 3 15 6 12 9
-10 65 52 58 64 -4 7 -3 8 5 4 6 -4 14 0 17 8 3 9 13 16 21 16 8 0 11 5 8 10
-3 6 5 14 19 20 14 5 26 12 26 15 0 4 -5 3 -12 -1 -7 -4 -8 -3 -4 4 4 7 14 12
22 12 8 0 12 5 9 10 -3 6 -2 10 2 10 5 0 18 7 29 16 10 8 13 12 5 8 -9 -5 -12
-3 -7 4 4 7 14 12 22 12 8 0 12 5 9 10 -3 6 1 10 10 10 9 0 13 5 10 10 -3 6
-2 10 2 10 5 0 18 7 29 16 10 8 13 12 5 8 -9 -5 -12 -3 -7 4 4 7 14 12 22 12
8 0 13 5 11 12 -1 6 8 17 20 23 13 7 20 15 15 20 -4 4 1 5 10 2 13 -4 16 -1
13 15 -3 11 -2 18 2 15 8 -9 45 12 38 22 -2 5 3 15 12 22 14 12 16 12 8 -1 -8
-13 -6 -13 8 -2 9 8 15 17 14 20 -1 4 2 8 7 9 5 1 14 12 21 25 6 13 17 22 23
21 7 -2 12 4 12 12 0 8 6 14 13 12 6 -1 11 6 11 15 -1 10 2 15 7 12 5 -3 9 0
9 6 0 6 11 15 25 20 23 9 30 21 26 43 -1 5 3 6 8 3 11 -7 53 33 46 44 -3 4 3
7 13 6 9 0 16 5 15 12 -2 6 3 12 11 12 7 0 20 8 27 18 13 16 13 16 -6 2 -19
-14 -19 -14 -6 3 7 9 20 17 27 17 8 0 13 6 11 12 -1 7 3 12 10 11 6 -1 17 5
25 14 11 14 11 16 -1 8 -10 -5 -12 -4 -7 3 4 7 14 12 22 12 8 0 13 4 9 9 -3 5
4 12 15 16 11 3 20 13 20 21 0 8 7 14 15 14 10 0 12 6 8 18 -6 15 -5 16 12 2
10 -8 16 -10 12 -3 -4 6 5 21 20 33 16 12 22 18 14 14 -9 -5 -12 -3 -7 4 4 7
14 12 22 12 8 0 13 3 11 8 -3 4 1 13 9 20 8 7 14 10 14 6 0 -4 10 6 23 22 12
16 21 32 20 35 -1 4 5 6 15 5 9 0 17 6 17 14 0 8 8 14 18 14 9 -1 14 2 11 7
-3 5 0 9 5 9 6 0 10 6 8 13 -1 6 4 11 11 10 6 -2 12 3 12 10 0 8 11 20 25 27
14 7 23 15 21 17 -5 6 54 63 65 63 5 0 8 6 6 13 -1 6 3 11 10 10 6 -2 15 6 18
17 4 11 10 18 14 15 4 -2 14 7 21 20 7 13 18 21 23 18 6 -4 8 0 4 10 -3 9 -3
16 1 16 20 -3 32 2 29 14 -1 6 4 11 11 10 6 -2 12 3 12 11 0 8 9 17 20 21 11
3 19 12 17 18 -1 7 4 11 11 10 6 -2 12 4 12 12 0 8 4 15 8 15 5 0 17 7 28 16
10 8 12 12 4 8 -9 -4 -7 2 5 13 11 11 23 19 27 17 4 -3 9 5 13 16 3 11 13 20
21 20 8 0 13 6 11 13 -1 6 4 11 11 10 6 -2 12 1 12 5 0 5 7 17 16 28 8 10 13
12 9 4 -4 -8 1 -6 9 4 9 11 16 24 16 29 0 4 5 5 12 1 7 -5 9 -2 5 9 -4 11 -2
14 9 10 9 -3 14 1 14 12 0 9 5 13 10 10 6 -3 10 1 10 9 0 9 7 16 15 16 8 0 14
3 12 8 -1 4 2 7 6 7 5 0 15 13 23 28 8 15 19 25 24 22 6 -4 10 -2 10 3 0 14
36 52 44 45 3 -3 6 5 7 18 0 13 3 18 6 11 3 -8 15 0 33 22 15 20 29 33 32 31
3 -3 11 6 18 20 7 14 19 25 27 25 7 0 12 3 10 8 -1 4 2 7 7 7 5 0 15 14 22 30
7 17 13 24 14 17 0 -10 3 -10 14 0 8 7 12 16 10 20 -2 4 5 9 16 13 11 3 19 12
17 18 -1 7 4 11 11 10 6 -2 12 4 12 12 0 8 7 15 16 15 8 0 12 5 9 10 -3 6 2
10 11 10 10 0 15 3 11 6 -7 7 49 64 63 64 6 0 9 6 7 13 -1 6 3 11 10 10 6 -2
15 6 18 17 4 11 11 18 16 15 5 -4 9 -1 9 5 0 15 46 60 54 53 3 -4 6 2 6 11 0
12 5 16 14 13 10 -4 13 -1 9 9 -3 8 1 14 11 14 9 0 15 6 13 13 -1 6 4 11 11
10 11 -3 16 9 13 29 0 4 6 5 14 2 8 -4 15 -1 15 6 0 15 26 41 34 33 3 -4 6 1
6 11 0 9 5 14 10 11 6 -3 10 1 10 9 0 9 6 16 14 16 8 0 18 5 22 12 5 7 2 9 -7
4 -8 -4 -5 0 5 8 11 9 24 16 29 16 4 0 5 5 2 10 -3 6 4 14 17 19 13 6 19 10
15 10 -4 1 -2 7 5 15 7 8 16 12 21 9 4 -2 7 3 7 11 0 9 8 16 17 16 9 0 14 3
11 6 -8 7 28 44 42 44 5 0 9 6 7 13 -1 6 4 11 11 10 11 -3 16 9 13 29 0 4 6 5
14 2 8 -4 15 -1 15 6 0 15 26 41 34 33 3 -4 6 1 6 11 0 9 5 14 10 11 6 -3 10
1 10 9 0 9 8 16 17 16 9 0 14 3 10 6 -8 8 16 33 26 27 4 -2 7 3 7 11 0 9 8 16
17 16 9 0 14 3 10 6 -8 8 16 33 26 27 4 -2 7 1 7 8 0 15 47 59 54 51 3 -3 6 2
6 11 0 9 11 22 24 29 14 7 26 18 28 23 2 6 6 9 10 8 5 -2 8 2 8 8 0 15 26 39
34 32 3 -4 6 1 6 10 0 10 8 17 17 17 9 0 14 3 11 6 -8 7 28 44 42 44 5 0 9 6
7 13 -1 6 4 11 11 10 11 -3 16 9 13 29 0 5 2 7 7 7 17 -3 35 1 29 7 -8 8 16
33 26 27 4 -2 7 3 7 11 0 9 8 16 17 16 9 0 14 3 10 6 -8 8 18 34 33 34 6 0 8
5 5 10 -3 6 1 10 10 10 9 0 13 5 10 10 -3 6 -1 10 5 10 6 0 8 5 5 10 -4 6 -3
10 2 9 20 -3 34 2 28 11 -3 6 -1 10 5 10 6 0 8 5 5 10 -4 6 -1 9 7 8 7 -2 12
2 11 9 -2 7 4 10 12 7 10 -4 15 0 15 11 0 9 5 13 10 10 6 -3 10 1 10 9 0 9 5
16 11 16 5 0 7 5 4 10 -4 6 -1 9 7 8 7 -2 12 2 11 9 -2 7 4 10 12 7 10 -4 15
0 15 11 0 9 4 14 9 11 5 -3 11 4 14 15 3 12 10 18 15 15 10 -6 27 22 23 37 -1
5 3 6 9 2 5 -3 10 1 10 10 0 9 4 13 10 10 5 -3 15 6 22 20 7 15 17 24 25 21 7
-3 13 1 13 10 0 8 5 12 10 9 6 -3 10 1 10 9 0 9 7 16 16 16 8 0 12 5 9 10 -3
6 1 10 10 10 11 0 15 5 11 15 -3 8 0 14 7 12 7 -1 11 4 9 11 -1 8 2 11 7 7 6
-3 15 4 21 15 6 11 15 18 19 15 9 -5 26 24 22 38 -1 5 3 6 9 2 5 -3 10 1 10
10 0 11 5 15 14 12 9 -4 17 2 21 14 4 10 11 17 16 14 5 -4 9 1 9 9 0 9 7 16
15 16 9 0 12 6 8 17 -5 12 -2 15 9 10 11 -4 18 2 23 20 4 16 11 23 20 19 9 -3
15 1 15 10 0 8 5 12 10 9 6 -3 10 1 10 9 0 9 7 16 16 16 8 0 12 5 9 10 -3 6 1
10 10 10 11 0 15 5 11 15 -3 8 0 14 7 12 7 -1 11 4 9 11 -1 8 2 11 8 7 5 -3
13 1 16 9 3 9 13 16 21 16 8 0 11 5 8 10 -3 6 1 10 9 10 10 0 13 6 9 16 -5 13
-1 15 18 10 13 -3 18 -3 12 0 -7 3 -13 10 -13 15 0 6 4 8 9 4 5 -3 17 5 25 17
9 12 16 18 17 13 0 -6 4 0 10 13 5 13 13 21 17 18 5 -3 14 6 21 20 6 14 15 23
20 20 9 -6 26 22 22 37 -1 5 3 6 9 2 5 -3 10 -1 10 5 0 6 5 8 10 5 6 -3 10 1
10 9 0 9 5 16 11 16 5 0 7 5 3 12 -4 7 -3 8 5 4 6 -4 14 0 17 8 3 9 10 13 15
10 5 -3 9 2 9 11 0 11 5 15 14 12 11 -4 13 -1 9 10 -5 12 -2 15 9 10 12 -4 14
-1 11 14 -4 15 -2 18 12 12 13 -4 16 -3 11 5 -4 8 2 16 16 21 13 6 19 10 15
10 -13 1 20 31 33 31 7 0 9 7 6 16 -3 8 -2 13 3 10 5 -3 19 8 31 24 12 16 27
27 33 23 6 -4 8 0 4 11 -4 9 -3 14 2 11 5 -3 17 5 25 17 9 12 16 18 17 13 0
-6 5 1 11 15 6 14 10 29 9 33 -1 5 3 6 9 2 6 -3 7 -11 4 -17 -5 -7 -2 -8 5 -4
7 5 10 14 7 22 -3 8 -2 13 2 13 20 -3 33 2 27 11 -3 6 -1 10 5 10 5 0 19 15
30 33 11 17 22 31 25 30 14 -7 23 -1 33 23 7 14 17 22 22 19 6 -3 10 -1 10 4
0 12 36 51 48 51 4 0 7 3 7 8 0 11 44 52 56 52 5 0 7 4 4 10 -3 5 5 15 19 21
14 7 23 16 20 20 -3 5 0 9 6 9 6 0 9 4 5 9 -3 5 4 12 15 16 11 3 25 15 31 26
5 11 14 17 20 14 5 -4 9 -1 9 4 0 14 37 51 51 51 5 0 8 3 6 8 -7 10 19 32 27
24 4 -3 4 2 0 12 -5 14 -4 17 4 12 7 -4 12 -2 12 4 0 6 4 9 9 6 4 -3 13 6 19
19 7 14 16 25 22 25 6 0 8 5 4 12 -5 8 -2 9 9 5 11 -4 17 -1 17 8 0 8 7 15 17
15 9 0 14 3 10 6 -7 8 17 34 32 34 5 0 13 4 16 10 3 6 -1 7 -12 4 -10 -3 -6 2
10 11 33 19 36 42 5 40 -13 -1 -26 3 -30 9 -5 7 -11 8 -15 1 -12 -15 -43 -17
-43 -3 0 8 -3 9 -8 3 -9 -14 -65 -14 -74 0 -5 7 -8 6 -8 -1 0 -6 -7 -11 -15
-11 -8 0 -15 5 -15 11 0 6 -4 5 -9 -2 -4 -8 -12 -14 -16 -14 -4 0 -12 6 -16
14 -5 7 -9 8 -9 2 0 -6 -7 -11 -15 -11 -8 0 -15 5 -15 11 0 6 -4 5 -9 -2 -11
-17 -21 -17 -32 0 -5 7 -9 8 -9 2 0 -6 -7 -11 -15 -11 -8 0 -15 5 -15 11 0 6
-4 5 -9 -2 -4 -8 -12 -14 -16 -14 -4 0 -12 6 -16 14 -7 11 -9 11 -9 -1 0 -11
-3 -11 -15 -1 -9 7 -15 8 -15 2 0 -12 -18 -11 -39 2 -9 6 -12 5 -8 -1 7 -11
-93 -10 -113 2 -8 5 -11 4 -7 -2 7 -10 -109 -10 -120 1 -3 3 -12 1 -20 -5 -10
-9 -13 -8 -13 2 0 12 -2 12 -9 1 -11 -17 -21 -17 -32 0 -5 7 -9 8 -9 2 0 -6
-7 -11 -15 -11 -8 0 -15 5 -15 11 0 6 -4 5 -9 -2 -4 -8 -12 -14 -16 -14 -4 0
-12 6 -16 14 -5 8 -9 8 -9 2 0 -14 -42 -13 -52 1 -5 6 -8 6 -8 -1 0 -12 -29
-12 -49 1 -8 5 -12 4 -8 -1 7 -12 -134 -11 -153 1 -8 5 -11 4 -7 -2 4 -6 -10
-9 -33 -9 -22 1 -40 6 -40 11 0 6 -4 4 -9 -3 -4 -8 -12 -14 -16 -14 -4 0 -12
6 -16 14 -5 7 -9 8 -9 2 0 -6 -7 -11 -15 -11 -8 0 -15 5 -15 11 0 6 -4 5 -9
-2 -4 -8 -12 -14 -16 -14 -4 0 -12 6 -16 14 -7 11 -9 11 -9 -1 0 -11 -3 -11
-15 -1 -9 7 -15 8 -15 2 0 -12 -18 -11 -39 2 -9 6 -12 5 -8 -1 7 -11 -93 -10
-113 2 -8 5 -11 4 -7 -2 7 -10 -109 -10 -120 1 -3 3 -12 1 -20 -5 -10 -9 -13
-8 -13 2 0 12 -2 12 -9 1 -4 -8 -12 -14 -16 -14 -4 0 -12 6 -16 14 -5 7 -9 8
-9 2 0 -6 -7 -11 -15 -11 -8 0 -15 5 -15 11 0 6 -4 5 -9 -2 -4 -8 -12 -14 -16
-14 -4 0 -12 6 -16 14 -5 8 -9 8 -9 2 0 -14 -42 -13 -52 1 -5 6 -8 6 -8 -1 0
-12 -29 -12 -49 1 -8 5 -12 4 -8 -1 7 -12 -134 -11 -153 1 -8 5 -11 4 -7 -2 8
-13 -86 -11 -95 2 -5 6 -8 6 -8 -1 0 -12 -29 -12 -49 1 -8 5 -12 4 -8 -1 7
-12 -134 -11 -153 1 -8 5 -11 4 -7 -2 4 -6 -10 -9 -33 -9 -22 1 -40 6 -40 11
0 6 -4 4 -9 -3 -11 -17 -21 -17 -32 0 -5 7 -9 8 -9 2 0 -6 -7 -11 -15 -11 -8
0 -15 5 -15 11 0 6 -4 5 -9 -2 -11 -17 -21 -17 -32 0 -7 11 -9 11 -9 -1 0 -11
-3 -11 -15 -1 -9 7 -15 8 -15 2 0 -12 -18 -11 -39 2 -9 6 -12 5 -8 -1 7 -11
-93 -10 -113 2 -8 5 -11 4 -7 -2 7 -10 -109 -10 -120 1 -3 3 -12 1 -20 -5 -10
-9 -13 -8 -13 2 0 12 -2 12 -9 1 -4 -8 -12 -14 -16 -14 -4 0 -12 6 -16 14 -5
7 -9 8 -9 2 0 -6 -7 -11 -15 -11 -8 0 -15 5 -15 11 0 6 -4 5 -9 -2 -4 -8 -12
-14 -16 -14 -4 0 -12 6 -16 14 -5 8 -9 8 -9 2 0 -14 -42 -13 -52 1 -5 6 -8 6
-8 -1 0 -12 -29 -12 -49 1 -8 5 -12 4 -8 -1 7 -12 -134 -11 -153 1 -8 5 -11 4
-7 -2 4 -6 -10 -9 -33 -9 -22 1 -40 6 -40 11 0 6 -4 4 -9 -3 -11 -17 -21 -17
-32 0 -5 7 -9 8 -9 2 0 -6 -7 -11 -15 -11 -8 0 -15 5 -15 11 0 6 -4 5 -9 -2
-4 -8 -12 -14 -16 -14 -4 0 -12 6 -16 14 -7 11 -9 11 -9 -1 0 -11 -3 -11 -15
-1 -9 7 -15 8 -15 2 0 -12 -18 -11 -39 2 -9 6 -12 5 -8 -1 7 -11 -93 -10 -113
2 -8 5 -11 4 -7 -2 7 -10 -109 -10 -120 1 -3 3 -12 1 -20 -5 -10 -9 -13 -8
-13 2 0 12 -2 12 -9 1 -4 -8 -12 -14 -16 -14 -4 0 -12 6 -16 14 -5 7 -9 8 -9
2 0 -6 -7 -11 -15 -11 -8 0 -15 5 -15 11 0 6 -4 5 -9 -2 -4 -8 -12 -14 -16
-14 -4 0 -12 6 -16 14 -5 7 -9 8 -9 2 0 -6 -7 -11 -15 -11 -8 0 -15 5 -15 11
0 6 -4 5 -9 -2 -4 -8 -12 -14 -16 -14 -4 0 -12 6 -16 14 -5 7 -9 8 -9 2 0 -6
-7 -11 -15 -11 -8 0 -15 5 -15 11 0 6 -4 5 -9 -2 -4 -8 -12 -14 -16 -14 -4 0
-12 6 -16 14 -7 11 -9 11 -9 -1 0 -11 -3 -11 -15 -1 -9 7 -15 8 -15 2 0 -12
-18 -11 -39 2 -9 6 -12 5 -8 -1 7 -11 -93 -10 -113 2 -8 5 -11 4 -7 -2 7 -10
-109 -10 -120 1 -3 3 -12 1 -20 -5 -10 -9 -13 -8 -13 2 0 12 -2 12 -9 1 -4 -8
-12 -14 -16 -14 -4 0 -12 6 -16 14 -5 7 -9 8 -9 2 0 -6 -7 -11 -15 -11 -8 0
-15 5 -15 11 0 6 -4 5 -9 -2 -4 -8 -12 -14 -16 -14 -4 0 -12 6 -16 14 -7 11
-9 11 -9 -1 0 -11 -3 -11 -15 -1 -9 7 -15 8 -15 2 0 -12 -18 -11 -39 2 -9 6
-12 5 -8 -1 7 -11 -93 -10 -113 2 -8 5 -11 4 -7 -2 7 -11 -104 -10 -123 2 -9
5 -11 4 -6 -3 4 -7 2 -12 -3 -12 -6 0 -11 6 -11 13 0 8 -3 8 -8 2 -8 -13 -22
-13 -41 -1 -9 6 -12 5 -8 -1z"/>
<path d="M7962 7963 c8 -10 7 -12 -5 -8 -8 4 -18 1 -23 -6 -5 -8 -3 -10 7 -5
9 5 8 2 -2 -6 -8 -7 -21 -22 -28 -33 -10 -16 -11 -17 -7 -2 3 11 2 15 -4 12
-6 -3 -10 -13 -10 -21 0 -8 -7 -14 -17 -14 -9 0 -14 -2 -11 -5 7 -7 -65 -84
-74 -79 -4 3 -9 -5 -13 -16 -3 -11 -15 -25 -26 -31 -11 -5 -17 -14 -14 -19 3
-6 -1 -7 -9 -4 -19 7 -22 -12 -3 -20 6 -3 1 -3 -13 0 -14 4 -22 3 -18 -1 7 -7
-47 -65 -61 -65 -5 0 -14 -13 -21 -30 -7 -16 -16 -27 -21 -24 -5 3 -9 0 -9 -6
0 -6 -4 -9 -9 -5 -5 3 -12 1 -16 -5 -3 -5 0 -10 7 -11 7 0 3 -4 -10 -10 -14
-5 -20 -13 -16 -20 4 -8 3 -9 -5 -5 -6 4 -14 0 -17 -8 -3 -9 -11 -13 -17 -9
-6 4 -8 0 -4 -10 4 -12 2 -14 -10 -10 -11 4 -14 2 -9 -5 4 -7 2 -12 -4 -12 -7
0 -9 -7 -6 -16 5 -14 4 -15 -9 -4 -12 10 -15 10 -15 -4 0 -9 -3 -15 -7 -15
-20 3 -26 -2 -13 -11 11 -7 12 -10 2 -10 -18 0 -43 -26 -34 -34 3 -4 -2 -4
-12 0 -11 4 -17 3 -14 -2 5 -10 -27 -45 -35 -38 -3 3 -8 1 -12 -5 -3 -6 0 -11
7 -12 7 0 3 -4 -10 -10 -14 -5 -20 -13 -16 -20 4 -8 3 -9 -4 -5 -6 3 -16 -3
-22 -14 -6 -11 -18 -20 -26 -20 -8 0 -12 -4 -9 -10 3 -5 1 -10 -5 -10 -7 0
-10 -7 -7 -15 4 -8 1 -17 -5 -21 -6 -4 -8 -3 -4 4 3 6 2 13 -4 17 -5 3 -10 -1
-10 -9 0 -9 -5 -16 -11 -16 -5 0 -7 -4 -4 -10 4 -6 -1 -7 -12 -3 -10 3 -15 3
-11 -2 4 -4 -5 -19 -20 -33 -15 -14 -26 -29 -25 -34 2 -4 -5 -4 -14 -1 -11 4
-14 3 -9 -5 4 -8 0 -12 -11 -12 -14 0 -15 -2 -5 -9 10 -6 8 -10 -8 -14 -14 -4
-19 -10 -14 -18 4 -8 3 -10 -5 -5 -6 4 -14 0 -17 -8 -3 -9 -11 -13 -16 -10 -6
4 -8 -3 -4 -17 3 -13 3 -18 0 -11 -8 17 -27 15 -20 -3 3 -8 0 -14 -7 -12 -7 1
-11 -6 -11 -16 2 -15 -1 -16 -14 -5 -13 11 -15 10 -9 -4 4 -13 2 -15 -10 -11
-11 4 -14 2 -9 -5 4 -7 2 -12 -4 -12 -6 0 -8 -4 -5 -10 4 -6 -1 -7 -11 -3 -12
4 -15 3 -10 -5 4 -7 2 -12 -4 -12 -6 0 -8 -4 -5 -10 3 -5 -1 -10 -9 -10 -9 0
-19 -12 -22 -26 -5 -19 -9 -22 -15 -12 -7 10 -9 9 -9 -5 0 -10 -7 -20 -16 -24
-8 -3 -13 -12 -10 -20 3 -8 1 -11 -4 -8 -6 3 -10 1 -10 -5 0 -6 -4 -8 -10 -5
-6 3 -7 -1 -4 -9 4 -10 1 -16 -9 -16 -10 0 -15 -7 -12 -19 2 -14 -1 -18 -10
-15 -10 4 -13 0 -10 -15 2 -13 0 -19 -6 -15 -5 3 -17 -13 -26 -35 -9 -22 -20
-38 -24 -35 -5 3 -9 -2 -9 -11 0 -9 -5 -13 -11 -9 -7 4 -7 -1 1 -16 8 -15 8
-20 1 -16 -6 4 -11 2 -11 -4 0 -6 -5 -8 -12 -4 -8 5 -7 0 2 -11 12 -15 12 -17
1 -10 -11 6 -13 4 -8 -9 5 -11 3 -15 -5 -10 -8 5 -9 2 -5 -10 4 -9 3 -14 -2
-11 -16 9 -23 -15 -10 -33 7 -9 9 -14 5 -10 -14 12 -36 -12 -36 -39 0 -14 -4
-21 -10 -18 -6 4 -10 -5 -10 -20 0 -14 -4 -24 -9 -20 -6 3 -8 -4 -6 -15 2 -11
-1 -20 -7 -20 -7 0 -6 -5 1 -14 9 -11 9 -16 0 -22 -8 -5 -9 -3 -4 6 5 9 4 11
-3 6 -7 -4 -12 -23 -12 -42 0 -19 -4 -34 -8 -34 -4 0 -9 -12 -10 -26 -1 -15
-6 -32 -11 -38 -6 -6 -8 -24 -7 -39 2 -15 -1 -27 -7 -27 -6 0 -7 -3 -4 -7 4
-3 1 -13 -6 -21 -10 -13 -9 -14 3 -7 12 7 13 6 4 -6 -6 -8 -11 -29 -10 -47 1
-24 -3 -31 -13 -27 -10 4 -8 -2 5 -16 10 -12 13 -19 5 -14 -10 5 -12 3 -7 -11
3 -11 1 -26 -4 -34 -6 -9 -5 -20 3 -29 10 -12 9 -13 -2 -7 -10 7 -12 3 -6 -14
6 -17 4 -21 -6 -14 -11 6 -12 5 -3 -7 5 -8 9 -24 8 -36 0 -13 4 -23 10 -24 6
0 2 -4 -9 -9 -11 -5 -14 -9 -6 -9 11 -1 11 -4 0 -18 -10 -11 -10 -14 -1 -9 7
4 12 1 12 -9 0 -10 -5 -13 -12 -9 -10 6 -10 4 0 -8 10 -13 10 -17 0 -21 -10
-4 -10 -6 1 -6 11 -1 11 -4 0 -18 -10 -11 -10 -14 -1 -9 7 4 12 1 12 -9 0 -10
-5 -13 -12 -9 -7 4 -5 -2 5 -13 12 -14 15 -23 7 -28 -6 -4 -8 -16 -4 -27 5
-16 3 -19 -7 -13 -8 5 -6 0 3 -11 17 -19 17 -21 0 -38 -9 -11 -11 -16 -4 -12
7 5 12 1 12 -9 0 -10 -5 -13 -12 -9 -7 4 -5 -2 5 -13 12 -14 15 -23 7 -28 -6
-4 -8 -16 -4 -27 5 -16 3 -19 -7 -13 -8 5 -6 0 3 -11 17 -19 17 -21 0 -38 -9
-11 -11 -16 -4 -12 7 5 12 1 12 -9 0 -10 -5 -13 -12 -9 -7 4 -5 -2 5 -13 12
-14 15 -23 7 -28 -6 -4 -8 -16 -4 -27 5 -16 3 -19 -7 -13 -8 5 -6 0 3 -11 17
-19 17 -21 0 -38 -9 -11 -11 -16 -4 -12 7 5 12 1 12 -9 0 -10 -5 -13 -12 -9
-7 4 -5 -2 5 -13 12 -14 15 -23 7 -28 -6 -4 -8 -16 -4 -27 5 -16 3 -19 -7 -13
-8 5 -6 0 3 -11 17 -19 17 -21 0 -38 -9 -11 -11 -16 -4 -12 7 5 12 1 12 -9 0
-10 -5 -13 -12 -9 -7 4 -5 -2 5 -13 12 -14 15 -23 7 -28 -6 -4 -8 -16 -4 -27
5 -16 3 -19 -7 -13 -8 5 -6 0 3 -11 17 -19 17 -21 0 -38 -9 -11 -11 -16 -4
-12 7 5 12 1 12 -9 0 -10 -5 -13 -12 -9 -7 4 -5 -2 5 -13 12 -14 15 -23 7 -28
-6 -4 -8 -16 -4 -27 5 -16 3 -19 -7 -13 -8 5 -6 0 3 -11 17 -19 17 -21 0 -38
-9 -11 -11 -16 -4 -12 7 5 12 1 12 -9 0 -10 -5 -13 -12 -9 -7 4 -5 -2 5 -13
12 -14 15 -23 7 -28 -6 -4 -8 -16 -4 -27 5 -16 3 -19 -7 -13 -8 5 -6 0 3 -11
17 -19 17 -21 0 -38 -9 -11 -11 -16 -4 -12 7 5 12 1 12 -9 0 -10 -5 -13 -12
-9 -7 4 -5 -2 5 -13 12 -14 15 -23 7 -28 -6 -4 -8 -16 -4 -27 5 -16 3 -19 -7
-12 -11 6 -12 5 -2 -7 6 -8 10 -34 8 -59 -2 -25 2 -51 8 -59 10 -12 9 -13 -1
-7 -11 6 -13 1 -11 -20 2 -16 -1 -35 -5 -43 -6 -10 -5 -12 3 -7 9 6 11 -4 7
-39 -3 -27 -1 -56 6 -68 10 -20 9 -21 -5 -9 -13 11 -15 10 -10 -10 3 -13 11
-29 17 -37 9 -12 8 -13 -2 -7 -11 6 -13 1 -11 -20 2 -16 -1 -35 -5 -43 -6 -10
-5 -12 3 -7 9 6 11 -4 7 -39 -3 -27 -1 -56 6 -68 10 -20 9 -21 -5 -9 -13 11
-15 10 -10 -10 3 -13 11 -29 17 -37 9 -12 8 -13 -2 -7 -11 6 -13 1 -11 -20 2
-16 -1 -35 -5 -43 -6 -10 -5 -12 3 -7 9 6 11 -4 7 -39 -3 -27 -1 -56 6 -68 10
-20 9 -21 -5 -9 -13 11 -15 10 -10 -10 3 -13 11 -29 17 -37 9 -12 8 -13 -2 -7
-11 6 -13 1 -11 -20 2 -16 -1 -35 -5 -43 -6 -10 -5 -12 3 -7 9 6 11 -4 7 -39
-3 -27 -1 -56 6 -68 10 -20 9 -21 -5 -9 -13 11 -15 10 -10 -10 3 -13 11 -29
17 -37 9 -12 8 -13 -2 -7 -11 6 -13 1 -11 -20 2 -16 -1 -35 -5 -43 -6 -10 -5
-12 3 -7 9 6 11 -4 7 -39 -3 -27 -1 -56 6 -68 10 -20 9 -21 -5 -9 -13 11 -15
10 -10 -10 3 -13 11 -29 17 -37 9 -12 8 -13 -2 -7 -11 6 -13 1 -11 -20 2 -16
-1 -35 -5 -43 -6 -10 -5 -12 3 -7 9 6 11 -4 7 -39 -3 -27 -1 -56 6 -68 10 -20
9 -21 -5 -9 -13 11 -15 10 -10 -10 3 -13 11 -29 17 -37 9 -12 8 -13 -2 -7 -11
6 -13 1 -11 -20 2 -16 -1 -35 -5 -43 -6 -10 -5 -12 3 -7 9 6 11 -4 7 -39 -3
-27 -1 -56 6 -68 10 -20 9 -21 -5 -9 -13 11 -15 10 -10 -10 3 -13 11 -29 17
-37 9 -12 8 -13 -2 -7 -11 6 -13 1 -11 -20 2 -16 -1 -35 -5 -43 -6 -10 -5 -12
3 -7 9 6 11 -4 7 -39 -3 -27 -1 -56 6 -68 10 -20 9 -21 -5 -9 -13 11 -15 10
-10 -10 3 -13 11 -29 17 -37 9 -12 8 -13 -2 -7 -11 6 -13 1 -11 -20 2 -16 -1
-35 -5 -43 -6 -10 -5 -12 3 -7 9 6 11 -4 7 -39 -3 -27 -1 -56 6 -68 10 -20 9
-21 -5 -9 -13 11 -15 10 -10 -10 3 -13 11 -29 17 -37 9 -12 8 -13 -2 -7 -11 6
-13 1 -11 -20 2 -16 -1 -35 -5 -43 -6 -10 -5 -12 3 -7 9 6 11 -4 7 -39 -3 -27
-1 -56 6 -68 10 -20 9 -21 -5 -9 -13 11 -15 10 -10 -10 3 -13 11 -29 17 -37 8
-11 8 -13 -1 -7 -9 5 -13 0 -13 -18 0 -14 5 -28 11 -31 7 -5 4 -14 -8 -28 -10
-11 -12 -17 -5 -13 7 4 12 1 12 -9 0 -10 -5 -13 -12 -9 -7 4 -5 -2 5 -13 12
-14 15 -23 7 -28 -6 -4 -8 -16 -4 -27 5 -16 3 -19 -7 -13 -8 5 -6 0 3 -11 17
-19 17 -21 0 -38 -9 -11 -11 -16 -4 -12 7 5 12 1 12 -9 0 -10 -5 -13 -12 -9
-7 4 -5 -2 5 -13 12 -14 15 -23 7 -28 -6 -4 -8 -16 -4 -27 5 -16 3 -19 -7 -13
-8 5 -6 0 3 -11 17 -19 17 -21 0 -38 -9 -11 -11 -16 -4 -12 7 5 12 1 12 -9 0
-10 -5 -13 -12 -9 -7 4 -5 -2 5 -13 12 -14 15 -23 7 -28 -6 -4 -8 -16 -4 -27
5 -16 3 -19 -7 -13 -8 5 -6 0 3 -11 17 -19 17 -21 0 -38 -9 -11 -11 -16 -4
-12 7 5 12 1 12 -9 0 -10 -5 -13 -12 -9 -7 4 -5 -2 5 -13 12 -14 15 -23 7 -28
-6 -4 -8 -16 -4 -27 5 -16 3 -19 -7 -13 -8 5 -6 0 3 -11 17 -19 17 -21 0 -38
-9 -11 -11 -16 -4 -12 7 5 12 1 12 -9 0 -10 -5 -13 -12 -9 -7 4 -5 -2 5 -13
12 -14 15 -23 7 -28 -6 -4 -8 -16 -4 -27 5 -16 3 -19 -7 -12 -11 6 -12 5 -3
-7 5 -8 9 -25 8 -39 -1 -14 3 -31 10 -39 8 -12 8 -13 -1 -7 -7 4 -13 3 -13 -2
0 -6 266 -10 695 -9 382 0 692 4 689 9 -3 4 -1 8 5 8 5 0 11 -6 14 -12 3 -9
10 -7 22 7 9 11 13 14 9 6 -5 -9 -3 -12 4 -7 7 4 12 13 12 21 0 8 5 17 12 21
7 5 8 3 3 -7 -5 -8 1 -5 13 5 12 11 22 25 22 33 0 7 5 13 10 13 6 0 9 3 9 8
-3 20 2 43 9 38 5 -3 9 1 9 9 0 8 -5 11 -10 8 -6 -4 -7 -1 -2 7 12 20 13 100
0 100 -7 0 -7 3 0 8 14 9 14 65 0 74 -7 5 -7 8 0 8 6 0 11 16 11 35 0 19 -5
35 -11 35 -6 0 -7 3 0 8 14 10 14 72 1 72 -7 0 -7 3 -1 8 6 4 10 135 10 357 0
222 -4 353 -10 357 -7 5 -6 8 0 8 6 0 11 16 11 35 0 19 -5 35 -11 35 -7 0 -7
3 0 8 14 9 14 65 0 74 -7 5 -7 8 0 8 6 0 11 16 11 35 0 19 -5 35 -11 35 -6 0
-7 3 0 8 6 4 10 242 10 677 0 435 -4 673 -10 677 -7 5 -6 8 0 8 6 0 11 16 11
35 0 19 -5 35 -11 35 -7 0 -7 3 0 8 6 4 11 21 11 37 0 17 -5 33 -11 37 -7 5
-7 8 0 8 6 0 11 16 11 35 0 19 -5 35 -11 35 -6 0 -7 3 0 8 6 4 10 135 10 357
0 222 -4 353 -10 357 -7 5 -6 8 0 8 6 0 11 16 11 35 0 19 -5 35 -11 35 -7 0
-7 3 0 8 6 4 11 21 11 37 0 17 -5 33 -11 37 -7 5 -7 8 0 8 6 0 11 16 11 35 0
19 -5 35 -11 35 -6 0 -7 3 0 8 6 4 10 242 10 677 0 435 -4 673 -10 677 -7 5
-6 8 0 8 6 0 11 16 11 35 0 19 -5 35 -11 35 -7 0 -7 3 0 8 6 4 11 21 11 37 0
17 -5 33 -11 37 -7 5 -7 8 0 8 6 0 11 16 11 35 0 19 -5 35 -11 35 -6 0 -7 3 0
8 6 4 10 135 10 357 0 222 -4 353 -10 357 -7 5 -6 8 0 8 6 0 11 16 11 35 0 19
-5 35 -11 35 -7 0 -7 3 0 8 6 4 11 21 11 37 0 17 -5 33 -11 37 -7 5 -7 8 0 8
6 0 11 16 11 35 0 19 -5 35 -11 35 -6 0 -7 3 0 8 6 4 10 87 10 212 0 187 -2
206 -17 206 -13 0 -14 -3 -6 -13z"/>
<path d="M6131 6141 c-7 -5 -13 -12 -14 -17 -1 -5 -6 -8 -11 -6 -5 2 -6 -6 -3
-17 3 -14 1 -18 -9 -14 -8 3 -14 0 -14 -7 0 -7 -6 -10 -14 -7 -10 4 -12 0 -9
-14 3 -11 0 -19 -6 -19 -7 0 -9 5 -5 12 4 7 3 8 -4 4 -6 -4 -8 -14 -5 -23 4
-11 3 -14 -5 -9 -7 4 -12 2 -12 -4 0 -6 -4 -8 -10 -5 -9 6 -15 -8 -11 -29 1
-5 -5 -6 -14 -3 -10 5 -15 0 -15 -14 0 -15 -4 -19 -16 -15 -12 4 -15 2 -10 -9
3 -9 0 -15 -9 -15 -13 0 -19 -11 -17 -31 1 -4 -8 -4 -20 -1 -17 4 -20 2 -16
-15 4 -15 1 -20 -11 -19 -9 0 -15 -5 -13 -12 1 -8 -2 -11 -8 -7 -5 3 -10 1
-10 -5 0 -6 -5 -8 -12 -4 -8 5 -9 2 -5 -10 5 -12 2 -16 -11 -14 -12 2 -16 -3
-14 -16 2 -11 -1 -15 -7 -11 -6 3 -11 1 -11 -5 0 -6 -4 -9 -9 -6 -4 3 -13 -6
-19 -19 -7 -14 -16 -25 -22 -25 -6 0 -8 -5 -4 -12 5 -7 1 -9 -13 -6 -17 4 -19
2 -15 -15 3 -14 1 -18 -6 -13 -7 4 -12 2 -12 -4 0 -6 -5 -8 -12 -4 -7 5 -9 1
-6 -13 4 -17 2 -19 -15 -15 -14 3 -18 1 -13 -6 4 -7 2 -12 -4 -12 -6 0 -8 -5
-4 -12 5 -8 2 -9 -9 -5 -11 4 -17 1 -17 -8 0 -8 -5 -15 -11 -15 -5 0 -8 -4 -5
-8 2 -4 -5 -14 -17 -22 -21 -12 -21 -12 -7 6 14 18 14 18 -3 5 -10 -8 -16 -22
-14 -32 3 -12 0 -16 -9 -12 -8 3 -14 -1 -14 -11 0 -10 -5 -13 -17 -9 -11 4
-14 3 -9 -5 4 -7 2 -12 -4 -12 -6 0 -8 -5 -4 -12 5 -7 1 -9 -13 -6 -17 4 -19
2 -15 -15 3 -14 1 -18 -6 -13 -7 4 -12 2 -12 -4 0 -6 -5 -8 -12 -4 -7 5 -9 1
-6 -13 4 -17 2 -19 -15 -15 -14 3 -18 1 -13 -6 4 -7 2 -12 -4 -12 -6 0 -8 -5
-5 -11 4 -6 0 -9 -10 -7 -10 2 -20 -4 -22 -12 -4 -13 -3 -13 7 0 10 13 11 13
7 0 -2 -8 -12 -14 -22 -12 -10 2 -14 -1 -10 -7 3 -6 1 -11 -5 -11 -6 0 -8 -5
-4 -12 5 -7 1 -9 -13 -6 -17 4 -19 2 -15 -15 3 -14 1 -18 -6 -13 -7 4 -12 2
-12 -4 0 -6 -5 -8 -12 -4 -7 5 -9 1 -6 -13 4 -17 2 -19 -15 -15 -14 3 -18 1
-13 -6 4 -7 2 -12 -4 -12 -6 0 -8 -5 -4 -12 5 -7 2 -9 -9 -5 -11 4 -18 -1 -22
-14 -4 -11 -11 -16 -17 -13 -7 5 -9 1 -5 -9 3 -9 3 -16 -1 -16 -20 3 -25 -2
-12 -12 12 -9 11 -10 -7 -6 -16 3 -23 0 -23 -9 0 -8 -4 -14 -10 -14 -5 0 -10
-7 -10 -16 0 -8 -5 -12 -10 -9 -13 8 -42 -14 -34 -26 3 -5 0 -9 -6 -9 -6 0 -8
-4 -5 -10 3 -5 -2 -10 -11 -10 -10 0 -14 -3 -11 -6 4 -4 -10 -20 -30 -35 -20
-16 -32 -29 -28 -29 5 0 18 8 29 18 15 13 14 10 -4 -15 -14 -18 -31 -32 -37
-32 -12 -1 -17 -14 -14 -34 1 -5 -3 -6 -8 -3 -5 4 -12 -3 -16 -14 -3 -11 -11
-20 -16 -20 -6 0 -7 -4 -4 -10 3 -5 1 -10 -4 -10 -6 0 -11 -7 -11 -15 0 -8 -4
-15 -10 -15 -5 0 -10 -7 -10 -16 0 -9 -5 -12 -12 -8 -8 5 -7 0 2 -11 8 -10 10
-16 4 -12 -11 6 -29 -19 -26 -35 1 -5 -5 -8 -13 -8 -9 0 -12 -6 -8 -17 5 -12
3 -14 -7 -8 -8 5 -11 4 -7 -2 7 -12 -19 -70 -29 -65 -3 2 -9 0 -12 -4 -4 -4
-1 -4 6 0 15 9 15 4 0 -29 -6 -14 -15 -25 -20 -25 -5 0 -4 -10 3 -21 8 -15 8
-19 0 -15 -13 8 -26 -20 -30 -67 -1 -5 -5 -6 -10 -3 -5 4 -8 -2 -6 -11 1 -10
-3 -24 -9 -32 -9 -12 -8 -13 4 -6 9 5 7 -1 -5 -15 -11 -13 -14 -20 -7 -16 17
10 15 0 -5 -19 -12 -13 -13 -19 -4 -25 10 -5 9 -9 -2 -13 -10 -4 -13 -13 -10
-28 4 -14 2 -20 -4 -16 -6 4 -9 -5 -7 -23 2 -17 -1 -30 -7 -30 -8 0 -8 -4 0
-14 9 -11 8 -15 -5 -20 -13 -5 -14 -9 -4 -21 9 -10 9 -15 1 -15 -13 0 -10 -22
4 -32 6 -5 5 -8 -3 -8 -7 0 -10 -4 -7 -10 3 -5 2 -10 -3 -10 -13 0 -10 -33 3
-42 6 -5 6 -8 -1 -8 -6 0 -10 -12 -9 -27 1 -16 -3 -34 -9 -42 -8 -11 -8 -13 2
-7 6 4 12 3 12 -3 0 -5 -5 -13 -10 -16 -14 -9 -1 -27 13 -18 7 3 3 -3 -7 -15
-14 -16 -15 -22 -6 -22 11 0 11 -3 2 -12 -7 -7 -12 -17 -12 -22 0 -6 5 -4 11
4 8 12 9 10 7 -10 -2 -14 -7 -28 -13 -32 -6 -5 -5 -8 3 -8 13 0 11 -27 -4 -64
-5 -14 -4 -17 5 -12 15 10 11 -25 -4 -36 -6 -5 -5 -8 3 -8 12 0 11 -38 -3 -60
-3 -5 -1 -10 5 -10 7 0 8 -6 0 -19 -7 -14 -7 -22 1 -27 8 -4 7 -9 -2 -15 -8
-5 -9 -9 -3 -9 6 0 11 -7 11 -15 0 -8 -5 -15 -11 -15 -6 0 -5 -4 2 -9 17 -11
17 -21 0 -32 -7 -5 -8 -9 -2 -9 14 0 14 -30 0 -30 -6 0 -4 -5 4 -10 13 -9 13
-10 0 -10 -12 0 -12 -2 -1 -9 9 -6 10 -11 2 -15 -6 -4 -11 -13 -11 -19 0 -7 4
-6 11 3 8 12 9 10 7 -10 -2 -14 -7 -28 -13 -32 -6 -5 -5 -8 3 -8 13 0 11 -27
-4 -64 -5 -14 -4 -17 5 -12 15 10 11 -25 -4 -36 -6 -5 -5 -8 3 -8 12 0 11 -38
-3 -60 -3 -5 -2 -10 2 -10 5 0 9 -9 9 -19 0 -11 -4 -17 -8 -15 -4 3 -8 0 -8
-5 0 -6 5 -11 10 -11 11 0 8 -30 -6 -64 -6 -16 -4 -18 11 -13 14 6 16 5 7 -6
-7 -8 -9 -17 -5 -20 3 -4 0 -7 -8 -7 -12 0 -12 -2 0 -9 12 -8 12 -12 2 -25 -9
-11 -10 -16 -2 -16 11 0 9 -39 -4 -60 -3 -5 -1 -10 5 -10 6 0 8 -4 5 -10 -11
-18 -14 -51 -4 -45 13 9 11 -9 -3 -23 -9 -9 -9 -12 0 -12 13 0 11 -27 -4 -64
-6 -16 -4 -18 11 -13 14 6 16 5 7 -6 -7 -8 -9 -17 -5 -20 3 -4 0 -7 -8 -7 -12
0 -12 -2 0 -9 12 -8 12 -12 2 -25 -9 -11 -10 -16 -2 -16 11 0 9 -39 -4 -60 -3
-5 -1 -10 5 -10 6 0 8 -4 5 -10 -11 -18 -14 -51 -4 -45 13 9 11 -9 -3 -23 -9
-9 -9 -12 2 -12 11 0 11 -3 2 -12 -7 -7 -12 -17 -12 -23 0 -5 5 -3 11 5 8 12
9 10 7 -10 -2 -14 -7 -28 -13 -32 -6 -5 -5 -8 3 -8 13 0 11 -27 -4 -64 -5 -14
-4 -17 5 -12 15 10 11 -25 -4 -36 -6 -5 -5 -8 3 -8 12 0 11 -38 -3 -60 -3 -5
-1 -10 5 -10 7 0 8 -6 0 -19 -7 -14 -7 -22 1 -27 8 -4 7 -9 -2 -15 -8 -5 -9
-9 -3 -9 14 0 14 -30 0 -30 -6 0 -5 -4 2 -9 17 -11 17 -21 0 -32 -7 -5 -8 -9
-2 -9 6 0 11 -7 11 -15 0 -8 -5 -15 -11 -15 -6 0 -4 -5 4 -10 13 -9 13 -10 0
-10 -12 0 -12 -2 -1 -9 9 -6 10 -11 2 -15 -6 -4 -11 -13 -11 -19 0 -7 4 -6 11
3 8 12 9 10 7 -10 -2 -14 -7 -28 -13 -32 -6 -5 -5 -8 3 -8 13 0 11 -27 -4 -64
-5 -14 -4 -17 5 -12 15 10 11 -25 -4 -36 -6 -5 -5 -8 3 -8 12 0 11 -38 -3 -60
-3 -5 -1 -10 5 -10 7 0 8 -6 0 -19 -7 -14 -7 -22 1 -27 8 -4 7 -9 -2 -15 -8
-5 -9 -9 -3 -9 6 0 11 -7 11 -15 0 -8 -5 -15 -11 -15 -6 0 -5 -4 2 -9 17 -11
17 -21 0 -32 -7 -5 -8 -9 -2 -9 6 0 11 -7 11 -15 0 -8 -5 -15 -11 -15 -6 0 -4
-5 4 -10 13 -9 13 -10 0 -10 -12 0 -12 -2 -1 -9 9 -6 10 -11 2 -15 -6 -4 -11
-13 -11 -19 0 -7 4 -6 11 3 8 12 9 10 7 -10 -2 -14 -7 -28 -13 -32 -6 -5 -5
-8 3 -8 13 0 11 -27 -4 -64 -5 -14 -4 -17 5 -12 15 10 11 -25 -4 -36 -6 -5 -5
-8 3 -8 12 0 11 -38 -3 -60 -3 -5 -2 -10 2 -10 5 0 9 -9 9 -19 0 -11 -4 -17
-8 -15 -4 3 -8 0 -8 -5 0 -6 5 -11 10 -11 10 0 7 -41 -5 -60 -3 -5 -1 -10 5
-10 6 0 8 -4 5 -10 -11 -18 -14 -51 -4 -45 12 8 12 -2 -2 -27 -8 -15 -8 -19 1
-13 13 8 10 -26 -4 -36 -32 -24 46 -26 703 -26 437 0 698 4 694 10 -3 5 5 4
17 -3 15 -8 20 -8 16 -1 -4 6 2 15 14 19 12 4 21 11 21 15 -1 4 1 7 4 7 10 -1
33 25 29 32 -2 4 0 9 6 13 6 4 8 10 5 15 -3 5 0 12 6 16 8 4 9 3 5 -4 -4 -7
-2 -12 4 -12 6 0 8 10 4 26 -4 15 -3 25 2 21 5 -3 9 8 9 24 0 16 -3 29 -6 29
-4 0 -3 18 1 40 4 22 3 40 -2 40 -5 0 -5 8 1 18 6 11 6 24 0 35 -7 12 -6 17 3
18 7 0 4 4 -7 9 -18 8 -18 9 -2 9 10 1 15 6 12 12 -12 18 -13 59 -2 59 8 0 8
3 0 11 -7 7 -8 21 -3 40 6 20 5 29 -3 29 -6 0 -2 7 9 15 15 12 15 14 2 9 -15
-5 -16 -2 -8 25 5 19 5 31 -1 31 -6 0 -6 6 0 18 6 11 6 24 0 35 -7 12 -6 17 3
18 7 0 4 4 -7 9 -18 8 -18 9 -2 9 14 1 16 5 7 20 -13 26 -13 34 3 25 8 -5 8
-2 -2 9 -11 14 -11 17 0 17 9 0 10 3 2 11 -7 7 -8 21 -3 40 5 16 5 29 1 29 -3
0 -7 9 -7 20 0 11 4 20 9 20 5 0 4 7 -3 15 -10 12 -9 15 6 16 18 0 18 1 -1 9
-11 5 -14 9 -7 9 9 1 10 6 2 20 -13 26 -13 34 3 25 8 -5 8 -2 -2 9 -11 14 -11
17 0 17 9 0 10 3 2 11 -7 7 -8 21 -3 40 5 18 5 29 -1 29 -6 0 -6 6 0 18 6 11
6 24 0 35 -7 12 -6 17 3 18 7 0 4 4 -7 9 -18 8 -18 9 -2 9 14 1 16 5 7 20 -13
26 -13 34 3 25 8 -5 8 -2 -2 9 -11 14 -11 17 0 17 9 0 10 3 2 11 -7 7 -8 21
-3 40 5 16 5 29 1 29 -3 0 -7 9 -7 20 0 11 4 20 9 20 5 0 4 7 -3 15 -10 12 -9
15 6 16 18 0 18 1 -1 9 -11 5 -14 9 -7 9 9 1 10 6 2 20 -7 14 -6 21 3 24 9 4
9 6 0 6 -7 1 -13 6 -13 12 0 5 5 7 11 3 8 -5 8 -1 0 14 -14 27 -14 35 2 26 8
-5 8 -2 -2 9 -9 12 -10 17 -2 17 7 0 9 5 5 12 -11 17 -10 68 0 68 6 0 5 5 -2
12 -7 7 -8 17 -1 30 6 12 6 18 -1 18 -5 0 -10 5 -10 11 0 5 5 7 11 3 8 -5 8
-1 0 14 -14 26 -14 35 -1 27 7 -4 7 3 0 19 -6 18 -6 26 1 26 6 0 7 6 3 12 -12
19 -12 48 -1 48 5 0 4 7 -3 15 -10 12 -9 15 6 16 18 0 18 1 -1 9 -11 5 -14 9
-7 9 9 1 10 6 2 20 -13 26 -13 34 3 25 8 -5 8 -2 -2 9 -11 14 -11 17 0 17 9 0
10 3 2 11 -7 7 -8 21 -3 40 5 18 5 29 -1 29 -6 0 -6 6 0 18 6 11 6 24 0 35 -7
12 -6 17 3 18 7 0 4 4 -7 9 -18 8 -18 9 -2 9 14 1 16 5 7 20 -13 26 -13 34 3
25 8 -5 8 -2 -2 9 -11 14 -11 17 0 17 9 0 10 3 2 11 -7 7 -8 21 -3 40 5 16 5
29 1 29 -3 0 -7 9 -7 20 0 11 4 20 9 20 5 0 4 7 -3 15 -10 12 -9 15 6 16 18 0
18 1 -1 9 -11 5 -14 9 -7 9 9 1 10 6 2 20 -7 14 -6 21 3 24 9 4 9 6 0 6 -7 1
-13 6 -13 12 0 5 5 7 11 3 8 -5 8 -1 0 14 -14 27 -14 35 2 26 8 -5 8 -2 -2 9
-9 12 -10 17 -2 17 7 0 9 5 5 12 -11 17 -10 68 1 68 5 0 4 5 -3 12 -7 7 -8 17
-1 30 6 12 6 18 -1 18 -5 0 -10 5 -10 11 0 5 5 7 11 3 8 -5 8 -1 0 14 -14 26
-14 35 -1 27 7 -4 7 3 0 19 -6 18 -6 26 1 26 6 0 7 6 3 12 -12 19 -12 48 -1
48 5 0 4 7 -3 15 -10 12 -9 15 6 16 18 0 18 1 -1 9 -11 5 -14 9 -7 9 9 1 10 6
2 20 -13 26 -13 34 3 25 8 -5 8 -2 -2 9 -11 14 -11 17 0 17 9 0 10 3 2 11 -7
7 -8 21 -3 40 5 18 5 29 -1 29 -6 0 -6 6 0 18 6 11 6 24 0 35 -7 12 -6 17 3
18 7 0 4 4 -7 9 -18 8 -18 9 -2 9 14 1 16 5 7 20 -13 26 -13 34 3 25 8 -5 8
-2 -2 9 -11 14 -11 17 0 17 9 0 10 3 2 11 -7 7 -8 21 -3 40 5 16 5 29 1 29 -3
0 -7 9 -7 20 0 11 4 20 9 20 5 0 4 7 -3 15 -10 12 -9 15 6 16 18 0 18 1 -1 9
-11 5 -14 9 -7 9 9 1 10 6 2 20 -7 14 -6 21 3 24 9 4 9 6 0 6 -7 1 -13 6 -13
12 0 5 5 7 11 3 8 -5 9 -2 1 11 -5 11 -6 30 -2 47 5 17 5 28 -1 28 -6 0 -6 6
0 18 6 11 6 24 0 35 -7 12 -6 17 3 18 7 0 4 4 -7 9 -18 8 -18 9 -2 9 10 1 15
6 12 12 -12 18 -13 59 -2 59 8 0 8 3 0 11 -7 7 -8 21 -3 40 6 20 5 29 -3 29
-6 0 -2 7 9 15 15 12 15 14 2 9 -15 -5 -16 -2 -8 25 5 19 5 31 -1 31 -6 0 -6
6 0 18 6 11 6 24 0 35 -7 12 -6 17 3 18 7 0 4 4 -7 9 -18 8 -18 9 -2 9 14 1
16 5 7 20 -13 26 -13 34 3 25 8 -5 8 -2 -2 9 -11 14 -11 17 0 17 9 0 10 3 2
11 -7 7 -8 21 -3 40 5 16 5 29 1 29 -5 0 -5 18 -1 40 4 22 3 40 -2 40 -5 0 -5
8 1 18 6 11 6 24 0 35 -7 12 -6 17 3 18 7 0 4 4 -7 9 -18 8 -18 9 -2 9 10 1
15 6 12 12 -12 18 -13 59 -2 59 8 0 8 3 0 11 -7 7 -8 21 -3 40 6 20 5 29 -3
29 -6 0 -2 7 9 15 15 12 15 14 2 9 -15 -5 -16 -2 -8 25 5 19 5 31 -1 31 -6 0
-6 6 0 18 6 11 6 24 0 35 -7 12 -6 17 3 18 7 0 4 4 -7 9 -18 8 -18 9 -2 9 14
1 16 5 7 20 -13 26 -13 34 3 25 8 -5 8 -2 -2 9 -11 14 -11 17 0 17 9 0 10 3 2
11 -7 7 -8 21 -3 40 5 16 5 29 1 29 -5 0 -5 18 -1 40 4 22 3 40 -2 40 -5 0 -5
8 1 18 6 11 6 24 0 35 -7 12 -6 17 3 18 7 0 4 4 -7 9 -18 8 -18 9 -2 9 14 1
16 5 7 20 -7 14 -6 21 3 24 9 4 9 6 0 6 -7 1 -13 6 -13 12 0 5 5 7 11 3 8 -4
8 0 0 15 -9 16 -9 21 1 22 7 0 4 4 -7 9 l-20 9 20 0 c11 1 16 5 10 9 -5 4 -10
16 -10 27 0 11 5 23 10 27 6 5 4 8 -5 8 -13 0 -13 1 0 10 8 5 11 10 5 10 -5 0
-10 11 -10 25 0 14 2 25 5 25 7 0 6 57 -1 64 -2 3 -10 1 -18 -3z m-1041 -1061
c0 -5 -5 -10 -11 -10 -5 0 -7 5 -4 10 3 6 8 10 11 10 2 0 4 -4 4 -10z m-443
-4106 c-3 -3 -12 -4 -19 -1 -8 3 -5 6 6 6 11 1 17 -2 13 -5z"/>
<path d="M4296 4304 c-19 -18 -21 -28 -4 -18 7 4 8 3 4 -4 -4 -7 -14 -12 -21
-12 -8 0 -19 -9 -25 -20 -6 -11 -16 -17 -22 -14 -7 5 -8 2 -4 -5 5 -8 0 -14
-14 -18 -13 -3 -19 -11 -16 -20 3 -8 2 -12 -2 -9 -11 7 -44 -32 -37 -44 3 -4
-4 -6 -15 -3 -16 4 -19 2 -14 -11 5 -12 2 -15 -12 -9 -12 4 -15 3 -10 -5 4 -7
2 -12 -4 -12 -6 0 -8 -4 -5 -10 6 -9 -8 -14 -28 -11 -5 1 -5 -3 -2 -9 4 -7 -2
-14 -15 -17 -13 -3 -19 -11 -16 -20 3 -8 2 -12 -2 -9 -11 7 -42 -30 -34 -40 4
-4 -3 -5 -14 -2 -17 4 -20 2 -17 -12 3 -10 -1 -21 -8 -25 -8 -5 -10 -4 -5 3 4
7 2 12 -5 12 -6 0 -9 -8 -6 -19 3 -12 -1 -18 -12 -17 -9 0 -15 -6 -15 -15 1
-11 -5 -15 -17 -12 -14 4 -18 1 -13 -10 3 -8 0 -18 -7 -23 -8 -4 -10 -3 -5 4
4 7 2 12 -3 12 -6 0 -11 -9 -11 -20 0 -18 -11 -25 -33 -21 -5 1 -5 -3 -2 -9 4
-7 -2 -14 -15 -17 -13 -3 -19 -11 -16 -20 3 -8 2 -11 -4 -8 -5 3 -14 -4 -20
-15 -6 -11 -15 -18 -20 -15 -6 4 -7 -1 -3 -11 4 -11 3 -15 -5 -10 -6 3 -13 -2
-17 -13 -3 -10 -19 -24 -35 -31 -18 -7 -30 -20 -30 -31 0 -11 -5 -16 -14 -13
-8 3 -16 -3 -19 -16 -3 -13 -10 -19 -17 -15 -6 3 -10 3 -9 -2 3 -20 -2 -34
-11 -28 -5 3 -10 1 -10 -5 0 -6 -5 -8 -12 -4 -8 5 -9 2 -5 -10 6 -14 3 -17 -8
-12 -9 3 -13 2 -10 -4 3 -6 -1 -13 -10 -16 -9 -4 -14 -13 -10 -22 4 -12 3 -13
-10 -2 -13 11 -14 10 -9 -5 5 -12 4 -16 -4 -11 -6 3 -13 -2 -17 -13 -4 -13
-11 -18 -22 -14 -11 4 -14 2 -9 -5 4 -7 2 -12 -3 -12 -6 0 -11 -7 -11 -16 0
-8 -4 -12 -10 -9 -5 3 -10 2 -10 -4 0 -6 -6 -9 -12 -7 -7 1 -10 1 -5 -1 14 -9
7 -25 -9 -19 -8 3 -12 2 -9 -4 3 -5 -4 -14 -15 -20 -14 -7 -19 -17 -16 -27 5
-13 4 -14 -9 -3 -9 7 -15 8 -15 2 0 -6 -20 -31 -45 -56 -25 -26 -45 -51 -45
-56 0 -5 -7 -6 -17 -3 -10 4 -14 2 -9 -5 3 -6 -6 -23 -21 -38 -16 -14 -22 -23
-14 -19 10 6 12 4 7 -4 -5 -7 -14 -10 -21 -7 -9 3 -12 -2 -10 -15 3 -14 -1
-19 -13 -17 -10 2 -16 -3 -14 -10 1 -7 -7 -21 -18 -30 -12 -9 -22 -27 -22 -38
-1 -14 -7 -20 -15 -17 -8 3 -13 2 -12 -3 5 -20 -22 -64 -38 -64 -15 0 -15 -2
3 -15 10 -8 15 -15 9 -14 -22 3 -35 -1 -35 -12 0 -5 6 -7 13 -3 6 3 0 -5 -15
-20 -30 -29 -36 -41 -15 -31 6 4 3 -1 -8 -10 -11 -9 -19 -23 -17 -31 2 -8 -2
-14 -8 -14 -6 0 -9 -4 -5 -9 3 -5 1 -12 -5 -16 -5 -3 -10 -15 -10 -26 0 -10
-5 -19 -11 -19 -6 0 -9 -9 -6 -20 3 -11 2 -18 -3 -15 -4 3 -10 -2 -14 -10 -3
-8 0 -15 6 -15 7 0 3 -7 -8 -15 -10 -8 -15 -15 -10 -15 5 0 1 -9 -9 -20 -18
-20 -18 -21 1 -15 17 6 17 5 3 -7 -9 -7 -14 -18 -12 -25 2 -6 -1 -14 -6 -18
-6 -3 -11 -17 -11 -31 0 -13 -5 -24 -11 -24 -8 0 -8 -4 0 -14 9 -11 9 -16 0
-22 -8 -5 -9 -3 -4 6 5 9 4 11 -4 6 -7 -5 -8 -13 -2 -23 6 -11 4 -21 -6 -31
-11 -11 -11 -17 -3 -22 8 -5 6 -9 -5 -14 -13 -4 -14 -10 -7 -19 7 -8 7 -18 2
-27 -5 -8 -6 -18 -3 -22 2 -5 -1 -15 -7 -23 -10 -12 -10 -15 1 -15 10 0 10 -3
1 -12 -16 -16 -15 -31 1 -22 9 5 9 4 0 -6 -9 -10 -9 -18 -1 -34 9 -18 9 -19
-3 -9 -12 10 -14 2 -14 -50 0 -34 5 -66 10 -70 6 -6 5 -10 -3 -14 -10 -4 -10
-8 0 -21 10 -12 10 -14 1 -8 -7 4 -13 3 -13 -3 0 -5 6 -12 13 -14 9 -4 9 -6
-1 -6 -10 -1 -10 -6 -2 -21 8 -15 8 -20 -2 -20 -9 0 -9 -3 2 -10 8 -5 11 -10
5 -10 -5 0 -10 -11 -10 -25 0 -14 3 -25 8 -25 4 0 7 5 7 12 0 6 3 8 7 4 5 -4
-1 -14 -11 -22 -14 -10 -16 -14 -5 -14 8 0 10 -3 4 -8 -5 -4 -10 -25 -10 -47
0 -22 5 -43 10 -47 6 -5 4 -8 -5 -8 -13 0 -13 -1 0 -10 11 -7 11 -10 2 -10
-10 0 -10 -5 -2 -20 8 -15 8 -20 -2 -20 -6 0 -3 -7 8 -15 18 -14 18 -15 0 -9
-16 6 -17 4 -7 -14 9 -17 9 -22 -1 -22 -9 0 -9 -3 2 -10 8 -5 11 -10 5 -10 -5
0 -10 -11 -10 -25 0 -14 3 -25 8 -25 4 0 7 5 7 12 0 6 3 8 7 4 5 -4 -1 -14
-11 -22 -14 -10 -16 -14 -5 -14 8 0 10 -3 4 -8 -5 -4 -10 -25 -10 -47 0 -22 5
-43 10 -47 6 -5 4 -8 -5 -8 -13 0 -13 -1 0 -10 11 -7 11 -10 2 -10 -10 0 -10
-5 -2 -20 8 -15 8 -20 -2 -20 -6 0 -3 -7 8 -15 18 -14 18 -15 0 -9 -16 6 -17
4 -7 -14 9 -17 9 -22 -1 -22 -9 0 -9 -3 2 -10 8 -5 11 -10 5 -10 -5 0 -10 -11
-10 -25 0 -14 3 -25 8 -25 4 0 7 5 7 12 0 6 3 8 7 4 5 -4 -1 -14 -11 -22 -14
-10 -16 -14 -5 -14 8 0 10 -3 4 -8 -5 -4 -10 -25 -10 -47 0 -22 5 -43 10 -47
6 -5 4 -8 -5 -8 -13 0 -13 -1 0 -10 11 -7 11 -10 2 -10 -10 0 -10 -5 -2 -20 8
-15 8 -20 -2 -20 -6 0 -3 -7 8 -15 11 -9 13 -13 4 -10 -14 5 -16 -5 -11 -81 1
-16 1310 -16 1330 0 11 8 13 8 8 -1 -6 -9 2 -12 27 -11 23 1 33 5 29 12 -4 6
1 5 10 -3 15 -12 17 -11 17 3 0 14 17 21 42 17 4 0 5 6 1 15 -3 9 0 14 8 12 8
-2 13 3 11 10 -1 7 5 15 13 18 8 3 12 10 9 15 -3 5 0 9 6 9 6 0 11 10 10 23
-4 39 0 48 13 41 10 -6 10 -4 0 7 -7 7 -13 17 -13 22 0 4 6 5 13 1 9 -5 9 -4
0 6 -8 9 -9 19 -2 32 7 13 6 18 -2 18 -9 0 -9 3 0 14 9 11 9 16 0 21 -8 6 -7
10 2 16 12 7 12 9 0 9 -10 0 -11 3 -2 13 8 10 7 17 -1 25 -9 9 -9 12 2 12 9 0
8 5 -6 16 -10 8 -14 13 -7 10 6 -4 14 -2 18 4 3 5 1 10 -4 10 -6 0 -11 7 -11
16 0 9 5 12 13 8 8 -5 8 -2 -2 9 -11 14 -11 17 0 17 11 0 11 2 -1 10 -13 9
-13 11 0 20 12 8 12 10 1 10 -10 0 -11 3 -2 14 7 9 8 17 2 20 -11 7 -9 25 3
45 6 10 5 12 -2 7 -15 -9 -16 6 -1 21 8 8 8 13 0 17 -6 4 -11 12 -11 17 0 6 6
7 13 3 7 -5 7 -1 -2 10 -13 15 -13 19 0 27 12 7 12 9 -1 9 -13 0 -13 1 0 10
12 8 12 10 1 10 -10 0 -11 3 -2 14 8 10 9 16 1 21 -5 3 -10 11 -10 16 0 6 6 7
13 3 9 -6 9 -4 -1 8 -10 13 -10 17 0 21 8 3 5 6 -6 6 -19 1 -19 1 -1 14 14 11
15 16 5 22 -10 6 -9 9 1 16 11 7 9 9 -5 9 -19 0 -19 0 -1 13 14 11 15 16 5 22
-10 6 -9 9 1 16 11 7 9 9 -5 9 -19 0 -19 0 -1 13 14 11 15 16 5 22 -10 6 -9 9
1 16 11 7 9 9 -6 9 -19 1 -19 1 -2 11 12 7 15 14 8 22 -12 16 -12 29 2 46 9
12 9 13 0 7 -16 -9 -17 6 -2 21 8 8 8 13 0 17 -6 4 -11 12 -11 17 0 6 6 7 13
3 7 -5 7 -1 -2 10 -13 15 -13 19 0 27 12 7 12 9 -1 9 -13 0 -13 1 0 10 12 8
12 10 1 10 -11 0 -11 3 0 17 10 11 10 14 2 9 -7 -4 -13 -3 -13 3 0 5 5 13 12
17 7 5 5 11 -7 21 -18 13 -18 13 1 13 14 0 16 2 5 9 -10 7 -11 10 -1 16 10 6
9 11 -5 22 -18 13 -18 13 1 13 14 0 16 2 5 9 -7 5 -9 11 -4 14 11 7 11 37 -1
55 -4 7 -2 12 6 12 9 0 9 3 -2 10 -13 9 -13 11 0 20 12 8 12 10 1 10 -10 0
-11 3 -2 14 8 10 9 16 1 21 -6 3 -8 11 -4 16 3 5 0 17 -7 25 -10 12 -9 13 7 7
17 -6 17 -5 5 10 -11 14 -11 17 0 17 11 0 11 2 -1 10 -8 5 -10 10 -5 10 6 0 3
5 -5 10 -12 8 -12 10 5 10 15 0 17 2 6 9 -10 7 -11 10 -1 16 10 6 9 11 -5 22
-18 13 -18 13 1 13 14 0 16 2 5 9 -10 7 -11 10 -1 16 10 6 9 11 -5 22 -18 13
-18 13 1 14 11 0 14 3 6 6 -10 4 -10 8 -1 19 9 11 8 15 -5 20 -15 6 -15 7 0
19 12 8 14 14 5 19 -6 4 -9 12 -5 17 3 5 0 17 -7 25 -10 12 -9 13 7 7 17 -6
17 -5 5 10 -11 14 -11 17 0 17 11 0 11 2 -1 10 -8 5 -10 10 -5 10 6 0 3 5 -5
10 -12 8 -12 10 5 10 15 0 17 2 6 9 -10 7 -11 10 -1 16 10 6 9 11 -5 22 -18
13 -18 13 1 13 14 0 16 2 5 9 -10 7 -11 10 -1 16 10 6 9 11 -5 22 -18 13 -18
13 1 13 14 0 16 2 5 9 -10 7 -11 10 -1 16 10 6 9 11 -4 20 -15 12 -15 13 0 19
14 5 14 9 3 23 -15 17 -14 19 4 42 9 12 9 13 0 7 -16 -9 -17 6 -2 21 8 8 8 13
0 17 -6 4 -11 12 -11 17 0 6 6 7 13 3 7 -5 7 -1 -2 10 -13 15 -13 19 0 27 12
7 12 9 -1 9 -13 0 -13 1 0 10 12 8 12 10 1 10 -10 0 -11 3 -2 14 8 10 9 16 1
21 -5 3 -10 11 -10 16 0 6 6 7 13 3 9 -6 9 -4 -1 8 -10 13 -10 17 0 21 8 3 5
6 -6 6 -19 1 -19 1 -1 14 14 11 15 16 5 22 -10 6 -9 9 1 16 11 7 9 9 -5 9 -19
0 -19 0 -1 13 14 11 15 16 5 22 -10 6 -9 9 1 16 11 7 9 9 -5 9 -19 0 -19 0 -1
13 14 11 15 16 5 22 -10 6 -9 9 1 16 11 7 9 9 -6 9 -19 1 -19 1 -2 11 12 7 15
15 9 22 -10 14 -10 27 2 46 6 10 5 12 -2 7 -15 -9 -16 6 -1 21 8 8 8 13 0 17
-6 4 -11 12 -11 17 0 6 6 7 13 3 7 -5 7 -1 -2 10 -13 15 -13 19 0 27 12 7 12
9 -1 9 -12 0 -13 2 -1 9 11 7 11 9 0 13 -12 4 -11 8 1 23 9 11 10 16 3 11 -16
-9 -17 6 -2 21 8 8 8 13 0 17 -6 4 -11 12 -11 17 0 6 6 7 13 3 7 -5 7 -1 -2
10 -13 15 -13 19 0 27 12 7 12 9 -1 9 -13 0 -13 1 0 10 12 8 12 10 1 10 -10 0
-11 3 -2 14 8 10 9 16 1 21 -5 3 -10 11 -10 16 0 6 6 7 13 3 9 -6 9 -4 -1 8
-10 13 -10 17 0 21 8 3 5 6 -6 6 -19 1 -19 1 -1 14 14 11 15 16 5 22 -10 6 -9
9 1 16 11 7 9 9 -6 9 -18 1 -19 1 -3 11 17 9 17 11 1 37 -14 22 -15 25 -2 15
13 -11 15 -10 14 5 0 9 -4 23 -8 29 -4 6 -1 14 5 16 8 3 5 6 -5 6 -17 1 -17 2
-2 17 10 11 12 20 6 28 -14 17 -14 28 1 37 10 7 10 9 -2 9 -13 0 -13 1 0 10
10 6 11 10 3 10 -7 0 -13 5 -13 11 0 5 5 7 12 3 7 -4 8 -3 4 4 -9 15 -12 15
-30 -4z"/>
<path d="M2462 2475 c7 -7 -58 -75 -72 -75 -5 0 -6 -7 -3 -17 4 -11 3 -14 -5
-9 -7 4 -12 2 -12 -4 0 -6 -5 -8 -12 -4 -7 5 -9 1 -6 -13 4 -17 2 -19 -15 -15
-14 3 -18 1 -13 -6 4 -7 2 -12 -4 -12 -6 0 -8 -5 -4 -12 5 -7 1 -9 -13 -6 -17
4 -19 2 -15 -15 3 -14 1 -18 -6 -13 -7 4 -12 2 -12 -4 0 -6 -5 -8 -11 -5 -6 4
-9 0 -7 -10 2 -10 -4 -20 -12 -22 -13 -4 -13 -3 0 7 13 10 13 11 0 7 -8 -2
-14 -12 -12 -22 2 -10 -1 -14 -7 -10 -6 3 -11 1 -11 -5 0 -6 -5 -8 -12 -4 -7
5 -9 1 -6 -13 4 -16 2 -19 -14 -15 -10 2 -18 1 -17 -4 4 -23 -3 -34 -21 -34
-14 0 -18 -5 -13 -17 4 -11 3 -14 -5 -9 -7 4 -12 2 -12 -4 0 -6 -5 -8 -12 -4
-8 5 -9 2 -5 -9 4 -12 1 -17 -9 -17 -10 0 -14 -6 -11 -14 4 -9 0 -12 -12 -9
-10 2 -24 -4 -32 -14 -13 -17 -13 -17 5 -3 18 14 18 14 6 -7 -8 -12 -17 -20
-21 -17 -4 2 -10 -3 -13 -12 -3 -8 -10 -12 -16 -9 -6 4 -7 -1 -3 -11 4 -12 3
-15 -5 -10 -7 4 -12 2 -12 -4 0 -6 -5 -8 -12 -4 -7 5 -9 1 -6 -13 4 -16 2 -19
-14 -15 -10 2 -18 1 -17 -4 4 -23 -2 -33 -18 -27 -11 4 -14 3 -9 -5 4 -7 2
-12 -4 -12 -6 0 -9 -4 -5 -9 3 -5 0 -13 -6 -17 -8 -4 -9 -3 -5 4 4 7 2 12 -3
12 -6 0 -11 -9 -11 -20 0 -18 -11 -25 -34 -21 -5 1 -6 -5 -3 -14 5 -11 0 -15
-15 -15 -12 0 -19 -3 -15 -6 7 -7 -75 -90 -87 -86 -5 2 -6 -3 -3 -11 3 -8 -7
-18 -24 -26 -16 -7 -27 -17 -23 -22 3 -5 0 -9 -6 -9 -6 0 -8 -5 -4 -12 5 -7 1
-9 -13 -6 -17 4 -19 2 -15 -15 3 -14 1 -18 -6 -13 -7 4 -12 2 -12 -4 0 -6 -5
-8 -12 -4 -7 5 -9 1 -6 -13 4 -17 2 -19 -15 -15 -14 3 -18 1 -13 -6 4 -7 2
-12 -4 -12 -6 0 -8 -5 -5 -11 4 -6 0 -9 -10 -7 -10 2 -20 -4 -22 -12 -4 -13
-3 -13 7 0 10 13 11 13 7 0 -2 -8 -12 -14 -22 -12 -10 2 -14 -1 -10 -7 3 -6 1
-11 -5 -11 -6 0 -8 -5 -4 -12 5 -7 1 -9 -13 -6 -17 4 -19 2 -15 -15 3 -14 1
-18 -6 -13 -7 4 -12 2 -12 -4 0 -6 -5 -8 -12 -4 -7 5 -9 1 -6 -13 4 -17 2 -19
-15 -15 -14 3 -18 1 -13 -6 4 -7 2 -12 -4 -12 -6 0 -9 -4 -6 -9 3 -5 -1 -12
-10 -15 -10 -4 -13 -2 -8 6 4 7 3 8 -4 4 -7 -4 -12 -14 -12 -22 0 -8 -4 -13
-8 -10 -4 2 -14 -5 -22 -17 -12 -21 -12 -21 6 -7 18 14 18 14 5 -3 -8 -11 -22
-16 -33 -14 -10 3 -16 1 -13 -3 7 -11 -5 -40 -17 -40 -5 0 -6 5 -2 12 4 7 3 8
-5 4 -6 -4 -9 -12 -6 -17 4 -5 1 -9 -5 -9 -6 0 -8 -5 -4 -12 5 -7 1 -9 -13 -6
-17 4 -19 2 -15 -15 4 -14 2 -18 -7 -13 -8 5 -14 1 -18 -12 -3 -13 -11 -18
-19 -15 -10 4 -12 0 -8 -11 5 -12 2 -15 -12 -9 -12 4 -15 3 -10 -5 4 -7 2 -12
-4 -12 -6 0 -8 -4 -5 -10 6 -9 -8 -14 -28 -11 -5 1 -5 -3 -2 -9 4 -7 -2 -14
-15 -17 -13 -3 -19 -11 -16 -20 4 -8 1 -11 -5 -8 -6 4 -13 -3 -16 -15 -3 -13
-11 -19 -20 -16 -8 4 -11 1 -8 -5 4 -6 -2 -13 -14 -16 -11 -3 -19 -9 -16 -13
3 -5 -4 -11 -15 -15 -11 -3 -20 -10 -20 -14 0 -10 42 -8 59 3 9 6 12 5 8 -1
-4 -7 215 -10 663 -10 485 0 668 3 663 11 -4 6 2 4 12 -4 11 -9 16 -10 11 -2
-4 7 0 15 11 19 32 12 71 55 68 74 -2 11 2 18 8 16 7 -1 11 6 9 15 -2 10 3 18
10 18 10 0 10 2 -1 9 -9 6 -10 10 -2 16 9 5 9 10 0 21 -6 8 -8 14 -3 14 11 0
10 51 0 68 -4 7 -2 12 5 12 8 0 8 4 1 13 -6 7 -8 18 -4 24 9 14 7 96 -2 111
-4 7 -2 12 5 12 8 0 8 4 1 13 -6 7 -8 18 -4 24 9 14 7 96 -2 111 -4 7 -2 12 5
12 8 0 8 4 1 13 -6 7 -8 18 -4 24 9 14 7 96 -2 111 -4 7 -2 12 5 12 8 0 8 4 1
13 -6 7 -8 18 -4 24 9 14 7 96 -2 111 -4 7 -2 12 5 12 8 0 8 4 1 13 -6 7 -8
18 -4 24 9 14 7 96 -2 111 -4 7 -2 12 5 12 8 0 8 4 1 13 -6 7 -8 18 -4 24 9
14 7 96 -2 111 -4 7 -2 12 5 12 8 0 7 5 -2 17 -12 15 -12 16 1 8 13 -8 13 -7
1 8 -9 12 -10 17 -2 17 8 0 9 5 3 17 -5 9 -6 29 -2 44 5 17 4 31 -3 38 -7 7
-7 11 -1 11 6 0 11 7 11 15 0 8 -4 12 -9 9 -4 -3 -8 -1 -8 5 0 5 5 13 10 16 8
5 7 12 -2 23 -7 9 -8 13 -2 9 6 -3 11 0 11 8 0 8 -7 17 -16 20 -8 3 -13 3 -9
0z"/>
</g>
</svg>
